<svg width="143" height="44" viewBox="0 0 143 44" fill="none" xmlns="http://www.w3.org/2000/svg">
<g clip-path="url(#clip0_3401_1441)">
<path d="M74.6097 30.7432L70 33.2413V30.6581L74.6097 27.9613L78.1666 29.9484V10.3613L74.6097 8.40258V5.62065L83.8291 10.6735V10.7303V13.4555V33.0709L88.7234 35.7961L93.3331 33.1561V24.8387L86.8453 21.2903V18.5084L98.9956 25.1226V32.9006L88.7234 38.6065L74.6097 30.7432ZM83.8291 5.05291L74.6097 0V2.78194L83.8291 7.83484V5.05291ZM88.7519 41.2181L74.6382 33.3548L70.0285 36.0516V38.6632L74.6382 36.1368L88.7519 44L99.0241 38.2942V35.3135L88.7519 41.2181Z" fill="white"/>
<path d="M109.809 32.1494C109.413 32.1494 109.016 32.1494 108.647 32.121C108.25 32.0925 107.853 32.0358 107.428 31.9506V24.9651C107.768 24.9083 108.108 24.8515 108.505 24.8231C108.902 24.7947 109.271 24.7664 109.611 24.7664C110.065 24.7664 110.49 24.7947 110.859 24.8515C111.256 24.9083 111.567 25.0219 111.851 25.1923C112.135 25.3626 112.333 25.5614 112.503 25.817C112.645 26.0725 112.73 26.3849 112.73 26.7824C112.73 27.3504 112.446 27.8047 111.908 28.1455C112.361 28.3158 112.673 28.5431 112.843 28.8554C113.013 29.1393 113.099 29.4801 113.099 29.8492C113.099 30.616 112.815 31.1555 112.276 31.553C111.709 31.9506 110.887 32.1494 109.809 32.1494ZM108.987 27.6911H109.781C110.292 27.6911 110.632 27.6344 110.859 27.4923C111.085 27.3788 111.17 27.1516 111.17 26.8676C111.17 26.5836 111.057 26.3849 110.83 26.2429C110.603 26.1293 110.292 26.0725 109.866 26.0725C109.724 26.0725 109.583 26.0725 109.413 26.0725C109.242 26.0725 109.101 26.0725 108.987 26.101V27.6911ZM108.987 28.9122V30.7579C109.101 30.7579 109.242 30.7863 109.384 30.7863C109.526 30.7863 109.668 30.7863 109.838 30.7863C110.32 30.7863 110.717 30.7296 111 30.5876C111.284 30.4456 111.454 30.1901 111.454 29.8209C111.454 29.4801 111.341 29.2529 111.085 29.1109C110.83 28.969 110.49 28.9122 110.008 28.9122H108.987Z" fill="white"/>
<path d="M119.563 29.3098C119.563 29.7357 119.507 30.1332 119.365 30.474C119.251 30.8432 119.053 31.1271 118.826 31.3827C118.599 31.6382 118.316 31.837 117.976 31.979C117.635 32.1209 117.267 32.1778 116.87 32.1778C116.473 32.1778 116.104 32.1209 115.764 31.979C115.424 31.837 115.168 31.6382 114.913 31.3827C114.686 31.1271 114.488 30.8147 114.375 30.474C114.261 30.1332 114.176 29.7357 114.176 29.3098C114.176 28.8838 114.233 28.4863 114.375 28.1454C114.516 27.8047 114.686 27.4924 114.942 27.2367C115.168 26.9812 115.452 26.7824 115.792 26.6689C116.133 26.5269 116.473 26.4701 116.87 26.4701C117.267 26.4701 117.635 26.5269 117.947 26.6689C118.287 26.8108 118.543 27.0096 118.798 27.2367C119.025 27.4924 119.223 27.7763 119.337 28.1454C119.507 28.4863 119.563 28.8838 119.563 29.3098ZM118.004 29.3098C118.004 28.827 117.919 28.4578 117.72 28.1739C117.522 27.8899 117.267 27.7763 116.898 27.7763C116.558 27.7763 116.274 27.9183 116.076 28.1739C115.877 28.4578 115.792 28.827 115.792 29.3098C115.792 29.7924 115.877 30.1616 116.076 30.4456C116.274 30.7296 116.529 30.8715 116.898 30.8715C117.238 30.8715 117.522 30.7296 117.72 30.4456C117.89 30.1616 118.004 29.7924 118.004 29.3098Z" fill="white"/>
<path d="M124.185 27.9471C124.044 27.9187 123.873 27.8904 123.703 27.8335C123.505 27.8051 123.306 27.7767 123.108 27.7767C123.023 27.7767 122.909 27.7767 122.768 27.8051C122.626 27.8335 122.541 27.8335 122.456 27.8619V32.0362H120.925V26.8681C121.208 26.7829 121.52 26.6693 121.889 26.5841C122.257 26.4989 122.683 26.4421 123.136 26.4421C123.221 26.4421 123.306 26.4421 123.448 26.4705C123.562 26.4705 123.675 26.4989 123.788 26.4989C123.902 26.5273 124.015 26.5273 124.129 26.5557C124.242 26.5841 124.355 26.6125 124.44 26.6408L124.185 27.9471Z" fill="white"/>
<path d="M130.479 29.3098C130.479 29.7357 130.422 30.1332 130.281 30.474C130.139 30.8147 129.969 31.1271 129.742 31.3827C129.515 31.6382 129.232 31.837 128.891 31.979C128.551 32.1209 128.182 32.1778 127.785 32.1778C127.388 32.1778 127.02 32.1209 126.68 31.979C126.339 31.837 126.084 31.6382 125.829 31.3827C125.574 31.1271 125.404 30.8147 125.29 30.474C125.177 30.1332 125.092 29.7357 125.092 29.3098C125.092 28.8838 125.148 28.4863 125.29 28.1454C125.432 27.8047 125.602 27.4924 125.857 27.2367C126.084 26.9812 126.368 26.7824 126.708 26.6689C127.048 26.5269 127.388 26.4701 127.785 26.4701C128.182 26.4701 128.551 26.5269 128.863 26.6689C129.203 26.8108 129.458 27.0096 129.713 27.2367C129.94 27.4924 130.139 27.7763 130.252 28.1454C130.422 28.4863 130.479 28.8838 130.479 29.3098ZM128.891 29.3098C128.891 28.827 128.806 28.4578 128.608 28.1739C128.409 27.8899 128.154 27.7763 127.785 27.7763C127.445 27.7763 127.162 27.9183 126.963 28.1739C126.765 28.4578 126.68 28.827 126.68 29.3098C126.68 29.7924 126.765 30.1616 126.963 30.4456C127.162 30.7296 127.417 30.8715 127.785 30.8715C128.126 30.8715 128.409 30.7296 128.608 30.4456C128.806 30.1616 128.891 29.7924 128.891 29.3098Z" fill="white"/>
<path d="M136.632 31.8655C136.49 31.8939 136.349 31.9507 136.15 31.9791C135.98 32.0075 135.782 32.0359 135.583 32.0643C135.385 32.0927 135.186 32.1211 134.988 32.1211C134.789 32.1494 134.591 32.1494 134.392 32.1494C133.939 32.1494 133.542 32.0927 133.201 31.9507C132.861 31.8087 132.549 31.6383 132.322 31.3828C132.067 31.1272 131.897 30.8433 131.755 30.5025C131.642 30.1617 131.557 29.7642 131.557 29.3383C131.557 28.8839 131.614 28.4863 131.727 28.1456C131.84 27.7765 131.982 27.4925 132.209 27.2369C132.407 26.9814 132.663 26.8109 132.975 26.669C133.286 26.527 133.627 26.4702 133.995 26.4702C134.222 26.4702 134.392 26.4986 134.562 26.527C134.733 26.5554 134.903 26.6405 135.073 26.6974V24.2269L136.632 23.9998V31.8655ZM133.145 29.2814C133.145 29.7642 133.258 30.1334 133.457 30.4457C133.683 30.7296 133.995 30.8717 134.421 30.8717C134.562 30.8717 134.676 30.8717 134.818 30.8433C134.931 30.8433 135.044 30.8148 135.101 30.8148V28.0036C135.016 27.9468 134.874 27.8901 134.733 27.8616C134.591 27.8332 134.421 27.8048 134.25 27.8048C133.513 27.7765 133.145 28.2876 133.145 29.2814Z" fill="white"/>
<path d="M140.205 26.4421C140.659 26.4421 141.027 26.4989 141.339 26.5841C141.651 26.6977 141.878 26.8396 142.077 27.0384C142.247 27.2372 142.388 27.4643 142.473 27.7483C142.559 28.0323 142.587 28.3446 142.587 28.657V31.8658C142.36 31.9226 142.048 31.9794 141.68 32.0362C141.283 32.093 140.801 32.1214 140.262 32.1214C139.922 32.1214 139.581 32.093 139.298 32.0362C139.014 31.9794 138.759 31.8658 138.561 31.7238C138.362 31.5819 138.192 31.3831 138.079 31.1559C137.965 30.9287 137.908 30.6448 137.908 30.304C137.908 29.9916 137.965 29.7076 138.107 29.5089C138.22 29.2817 138.419 29.1114 138.617 28.9694C138.844 28.8274 139.071 28.7422 139.355 28.6854C139.638 28.6286 139.922 28.6003 140.205 28.6003C140.404 28.6003 140.574 28.6003 140.744 28.6286C140.886 28.657 141.027 28.657 141.113 28.6854V28.5434C141.113 28.2879 141.027 28.0607 140.886 27.9187C140.716 27.7483 140.46 27.6916 140.063 27.6916C139.808 27.6916 139.553 27.7199 139.298 27.7483C139.043 27.7767 138.816 27.8335 138.646 27.9187L138.447 26.6693C138.532 26.6408 138.646 26.6125 138.787 26.5841C138.929 26.5557 139.071 26.5273 139.241 26.4989C139.411 26.4705 139.553 26.4421 139.751 26.4421C139.865 26.4421 140.035 26.4421 140.205 26.4421ZM140.347 30.9572C140.489 30.9572 140.63 30.9572 140.772 30.9572C140.914 30.9572 141.027 30.9287 141.113 30.9287V29.7645C141.056 29.7645 140.971 29.7361 140.829 29.7361C140.716 29.7361 140.602 29.7076 140.489 29.7076C140.347 29.7076 140.205 29.7076 140.092 29.7361C139.95 29.7645 139.865 29.7928 139.751 29.8212C139.666 29.8781 139.581 29.9349 139.525 30.02C139.468 30.1052 139.44 30.2188 139.44 30.3324C139.44 30.588 139.525 30.7299 139.695 30.8435C139.837 30.9287 140.063 30.9572 140.347 30.9572Z" fill="white"/>
<path d="M110.688 36.8346C110.688 37.1754 110.632 37.4877 110.518 37.7432C110.405 37.9989 110.263 38.1976 110.065 38.368C109.866 38.5384 109.639 38.6519 109.356 38.7371C109.072 38.8224 108.789 38.8507 108.448 38.8507C108.278 38.8507 108.108 38.8507 107.91 38.8224C107.711 38.8224 107.541 38.794 107.371 38.7371V34.8752C107.541 34.8469 107.711 34.8185 107.91 34.7901C108.108 34.7901 108.278 34.7617 108.448 34.7617C108.76 34.7617 109.072 34.7901 109.356 34.8752C109.639 34.9604 109.866 35.074 110.065 35.2444C110.263 35.4148 110.405 35.6136 110.518 35.8691C110.632 36.1815 110.688 36.4938 110.688 36.8346ZM108.533 38.368C109.072 38.368 109.469 38.226 109.724 37.9705C109.98 37.6865 110.121 37.3173 110.121 36.8346C110.121 36.3519 109.98 35.9827 109.724 35.6987C109.469 35.4148 109.072 35.3012 108.533 35.3012C108.363 35.3012 108.25 35.3012 108.165 35.3012C108.08 35.3012 108.023 35.3012 107.995 35.3012V38.3396C108.023 38.3396 108.08 38.3396 108.165 38.3396C108.25 38.368 108.363 38.368 108.533 38.368Z" fill="white"/>
<path d="M112.163 35.3014C112.078 35.3014 111.993 35.273 111.908 35.2162C111.851 35.1594 111.794 35.0742 111.794 34.9606C111.794 34.8471 111.823 34.7619 111.908 34.7051C111.964 34.6483 112.049 34.6199 112.163 34.6199C112.248 34.6199 112.333 34.6483 112.418 34.7051C112.475 34.7619 112.531 34.8471 112.531 34.9606C112.531 35.0742 112.503 35.1594 112.418 35.2162C112.333 35.273 112.248 35.3014 112.163 35.3014ZM112.418 38.8226H111.879V35.841H112.418V38.8226Z" fill="white"/>
<path d="M115.594 38.51C115.537 38.5384 115.452 38.5667 115.339 38.6236C115.197 38.6803 115.055 38.7088 114.885 38.7088C114.715 38.7088 114.545 38.6803 114.375 38.6236C114.205 38.5667 114.091 38.4816 113.949 38.368C113.836 38.2544 113.751 38.0841 113.666 37.9137C113.609 37.7432 113.552 37.5161 113.552 37.2606C113.552 37.0333 113.581 36.8346 113.638 36.6642C113.694 36.4938 113.808 36.3234 113.921 36.1815C114.034 36.0395 114.205 35.9543 114.375 35.8691C114.545 35.7839 114.743 35.7555 114.97 35.7555C115.225 35.7555 115.424 35.7839 115.622 35.8123C115.821 35.8408 115.963 35.8691 116.076 35.9259V38.5952C116.076 39.0495 115.963 39.3902 115.707 39.589C115.481 39.7878 115.112 39.9014 114.63 39.9014C114.431 39.9014 114.261 39.873 114.091 39.8446C113.921 39.8163 113.779 39.7878 113.666 39.731L113.751 39.2767C113.864 39.3051 113.978 39.3619 114.148 39.3902C114.29 39.4187 114.46 39.4471 114.63 39.4471C114.942 39.4471 115.169 39.3902 115.31 39.2483C115.452 39.1347 115.509 38.9076 115.509 38.6519V38.51H115.594ZM115.594 36.2951C115.537 36.2667 115.481 36.2667 115.367 36.2383C115.254 36.2098 115.169 36.2098 114.999 36.2098C114.715 36.2098 114.488 36.2951 114.346 36.4938C114.205 36.6926 114.12 36.9198 114.12 37.2321C114.12 37.4025 114.148 37.5445 114.176 37.6865C114.233 37.8001 114.29 37.9137 114.346 37.9989C114.431 38.0841 114.517 38.1408 114.602 38.1692C114.687 38.1976 114.8 38.226 114.913 38.226C115.055 38.226 115.197 38.1976 115.31 38.1692C115.424 38.1408 115.509 38.0841 115.594 38.0272V36.2951Z" fill="white"/>
<path d="M117.692 35.3014C117.606 35.3014 117.521 35.273 117.436 35.2162C117.38 35.1594 117.323 35.0742 117.323 34.9606C117.323 34.8471 117.351 34.7619 117.436 34.7051C117.493 34.6483 117.578 34.6199 117.692 34.6199C117.777 34.6199 117.862 34.6483 117.947 34.7051C118.003 34.7619 118.06 34.8471 118.06 34.9606C118.06 35.0742 118.032 35.1594 117.947 35.2162C117.89 35.273 117.805 35.3014 117.692 35.3014ZM117.975 38.8226H117.436V35.841H117.975V38.8226Z" fill="white"/>
<path d="M119.79 35.8406H120.924V36.2949H119.79V37.6864C119.79 37.8283 119.79 37.9703 119.818 38.0555C119.847 38.1407 119.875 38.2259 119.932 38.2827C119.988 38.3394 120.045 38.3678 120.102 38.3963C120.159 38.4246 120.244 38.4246 120.329 38.4246C120.499 38.4246 120.612 38.3963 120.726 38.3678C120.811 38.3394 120.896 38.3111 120.924 38.2827L121.038 38.737C120.981 38.7654 120.896 38.7938 120.754 38.8506C120.612 38.8789 120.47 38.9074 120.3 38.9074C120.102 38.9074 119.932 38.8789 119.79 38.8222C119.648 38.7654 119.563 38.6802 119.478 38.5951C119.393 38.4815 119.336 38.3678 119.308 38.2259C119.28 38.0839 119.251 37.9135 119.251 37.6864V35.0171L119.79 34.9319V35.8406Z" fill="white"/>
<path d="M123.022 35.7555C123.249 35.7555 123.419 35.7839 123.561 35.8408C123.703 35.8975 123.816 35.9827 123.93 36.0679C124.015 36.1815 124.071 36.2951 124.128 36.4371C124.156 36.579 124.185 36.721 124.185 36.8914V38.7655C124.128 38.7655 124.071 38.794 123.986 38.794C123.901 38.794 123.816 38.8224 123.703 38.8224C123.589 38.8224 123.476 38.8507 123.362 38.8507C123.249 38.8507 123.136 38.8791 122.994 38.8791C122.824 38.8791 122.682 38.8507 122.54 38.8224C122.398 38.794 122.285 38.7371 122.172 38.6519C122.058 38.5667 122.001 38.4816 121.916 38.368C121.86 38.2544 121.831 38.0841 121.831 37.9137C121.831 37.7432 121.86 37.6013 121.945 37.4877C122.001 37.3742 122.115 37.2606 122.228 37.2037C122.342 37.1185 122.483 37.0902 122.625 37.0333C122.767 37.005 122.937 36.9766 123.107 36.9766C123.164 36.9766 123.221 36.9766 123.277 36.9766C123.334 36.9766 123.391 36.9766 123.448 37.005C123.504 37.005 123.533 37.0333 123.589 37.0333C123.618 37.0333 123.646 37.0333 123.674 37.0618V36.9198C123.674 36.8346 123.674 36.7494 123.646 36.6642C123.618 36.579 123.589 36.4938 123.533 36.4371C123.476 36.3803 123.419 36.3234 123.334 36.2667C123.249 36.2383 123.136 36.2098 122.994 36.2098C122.824 36.2098 122.654 36.2098 122.54 36.2383C122.398 36.2667 122.313 36.2951 122.257 36.3234L122.2 35.8691C122.257 35.8408 122.37 35.8123 122.54 35.7839C122.654 35.7839 122.824 35.7555 123.022 35.7555ZM123.079 38.4248C123.192 38.4248 123.306 38.4248 123.419 38.4248C123.504 38.4248 123.589 38.3964 123.674 38.3964V37.5161C123.646 37.4877 123.561 37.4877 123.476 37.4593C123.391 37.4593 123.277 37.4309 123.164 37.4309C123.079 37.4309 122.994 37.4309 122.909 37.4593C122.824 37.4593 122.739 37.4877 122.654 37.5445C122.569 37.5729 122.512 37.6297 122.455 37.6865C122.398 37.7432 122.37 37.8285 122.37 37.942C122.37 38.1408 122.427 38.2544 122.54 38.3396C122.682 38.3964 122.852 38.4248 123.079 38.4248Z" fill="white"/>
<path d="M126.34 38.8793C126 38.8793 125.773 38.794 125.632 38.6805C125.49 38.5384 125.433 38.3397 125.433 38.0558V34.4778L125.972 34.3926V37.9706C125.972 38.0558 125.972 38.1409 126 38.1977C126.029 38.2545 126.029 38.3113 126.085 38.3397C126.114 38.3681 126.17 38.3965 126.227 38.4249C126.284 38.4532 126.369 38.4532 126.425 38.4817L126.34 38.8793Z" fill="white"/>
</g>
<path d="M42.1185 15.06C41.5919 15.06 41.1052 14.9733 40.6585 14.8C40.2119 14.62 39.8252 14.37 39.4985 14.05C39.1719 13.73 38.9152 13.3533 38.7285 12.92C38.5485 12.4867 38.4585 12.0133 38.4585 11.5C38.4585 10.9867 38.5485 10.5133 38.7285 10.08C38.9152 9.64667 39.1719 9.27 39.4985 8.95C39.8319 8.63 40.2219 8.38333 40.6685 8.21C41.1152 8.03 41.6019 7.94 42.1285 7.94C42.6352 7.94 43.1119 8.02667 43.5585 8.2C44.0052 8.36667 44.3819 8.62 44.6885 8.96L44.2185 9.43C43.9319 9.13667 43.6152 8.92667 43.2685 8.8C42.9219 8.66667 42.5485 8.6 42.1485 8.6C41.7285 8.6 41.3385 8.67333 40.9785 8.82C40.6185 8.96 40.3052 9.16333 40.0385 9.43C39.7719 9.69 39.5619 9.99667 39.4085 10.35C39.2619 10.6967 39.1885 11.08 39.1885 11.5C39.1885 11.92 39.2619 12.3067 39.4085 12.66C39.5619 13.0067 39.7719 13.3133 40.0385 13.58C40.3052 13.84 40.6185 14.0433 40.9785 14.19C41.3385 14.33 41.7285 14.4 42.1485 14.4C42.5485 14.4 42.9219 14.3333 43.2685 14.2C43.6152 14.0667 43.9319 13.8533 44.2185 13.56L44.6885 14.03C44.3819 14.37 44.0052 14.6267 43.5585 14.8C43.1119 14.9733 42.6319 15.06 42.1185 15.06ZM49.4286 15V13.84L49.3986 13.65V11.71C49.3986 11.2633 49.2719 10.92 49.0186 10.68C48.7719 10.44 48.4019 10.32 47.9086 10.32C47.5686 10.32 47.2453 10.3767 46.9386 10.49C46.6319 10.6033 46.3719 10.7533 46.1586 10.94L45.8386 10.41C46.1053 10.1833 46.4253 10.01 46.7986 9.89C47.1719 9.76333 47.5653 9.7 47.9786 9.7C48.6586 9.7 49.1819 9.87 49.5486 10.21C49.9219 10.5433 50.1086 11.0533 50.1086 11.74V15H49.4286ZM47.6186 15.05C47.2253 15.05 46.8819 14.9867 46.5886 14.86C46.3019 14.7267 46.0819 14.5467 45.9286 14.32C45.7753 14.0867 45.6986 13.82 45.6986 13.52C45.6986 13.2467 45.7619 13 45.8886 12.78C46.0219 12.5533 46.2353 12.3733 46.5286 12.24C46.8286 12.1 47.2286 12.03 47.7286 12.03H49.5386V12.56H47.7486C47.2419 12.56 46.8886 12.65 46.6886 12.83C46.4953 13.01 46.3986 13.2333 46.3986 13.5C46.3986 13.8 46.5153 14.04 46.7486 14.22C46.9819 14.4 47.3086 14.49 47.7286 14.49C48.1286 14.49 48.4719 14.4 48.7586 14.22C49.0519 14.0333 49.2653 13.7667 49.3986 13.42L49.5586 13.91C49.4253 14.2567 49.1919 14.5333 48.8586 14.74C48.5319 14.9467 48.1186 15.05 47.6186 15.05ZM52.1987 15V9.75H52.9087V13.92L56.4187 9.75H57.0487V15H56.3387V10.82L52.8387 15H52.1987ZM54.5787 8.99C54.1387 8.99 53.782 8.88 53.5087 8.66C53.242 8.43333 53.102 8.11 53.0887 7.69H53.5987C53.6053 7.95667 53.6987 8.16667 53.8787 8.32C54.0587 8.47333 54.292 8.55 54.5787 8.55C54.8653 8.55 55.0987 8.47333 55.2787 8.32C55.4653 8.16667 55.562 7.95667 55.5687 7.69H56.0787C56.072 8.11 55.932 8.43333 55.6587 8.66C55.3853 8.88 55.0253 8.99 54.5787 8.99ZM60.2834 15V10.18L60.4634 10.37H58.2934V9.75H62.9834V10.37H60.8134L60.9934 10.18V15H60.2834ZM4.31453 28.05C3.8612 28.05 3.4512 27.9467 3.08453 27.74C2.71787 27.5267 2.42453 27.2233 2.20453 26.83C1.9912 26.43 1.88453 25.9433 1.88453 25.37C1.88453 24.7967 1.9912 24.3133 2.20453 23.92C2.41787 23.52 2.70787 23.2167 3.07453 23.01C3.4412 22.8033 3.85453 22.7 4.31453 22.7C4.81453 22.7 5.2612 22.8133 5.65453 23.04C6.05453 23.26 6.36787 23.5733 6.59453 23.98C6.8212 24.38 6.93453 24.8433 6.93453 25.37C6.93453 25.9033 6.8212 26.37 6.59453 26.77C6.36787 27.17 6.05453 27.4833 5.65453 27.71C5.2612 27.9367 4.81453 28.05 4.31453 28.05ZM1.60453 29.94V22.75H2.28453V24.33L2.21453 25.38L2.31453 26.44V29.94H1.60453ZM4.26453 27.42C4.63787 27.42 4.9712 27.3367 5.26453 27.17C5.55787 26.9967 5.7912 26.7567 5.96453 26.45C6.13787 26.1367 6.22453 25.7767 6.22453 25.37C6.22453 24.9633 6.13787 24.6067 5.96453 24.3C5.7912 23.9933 5.55787 23.7533 5.26453 23.58C4.9712 23.4067 4.63787 23.32 4.26453 23.32C3.8912 23.32 3.55453 23.4067 3.25453 23.58C2.9612 23.7533 2.72787 23.9933 2.55453 24.3C2.38787 24.6067 2.30453 24.9633 2.30453 25.37C2.30453 25.7767 2.38787 26.1367 2.55453 26.45C2.72787 26.7567 2.9612 26.9967 3.25453 27.17C3.55453 27.3367 3.8912 27.42 4.26453 27.42ZM11.8907 28V26.84L11.8607 26.65V24.71C11.8607 24.2633 11.734 23.92 11.4807 23.68C11.234 23.44 10.864 23.32 10.3707 23.32C10.0307 23.32 9.70737 23.3767 9.4007 23.49C9.09404 23.6033 8.83404 23.7533 8.6207 23.94L8.3007 23.41C8.56737 23.1833 8.88737 23.01 9.2607 22.89C9.63404 22.7633 10.0274 22.7 10.4407 22.7C11.1207 22.7 11.644 22.87 12.0107 23.21C12.384 23.5433 12.5707 24.0533 12.5707 24.74V28H11.8907ZM10.0807 28.05C9.68737 28.05 9.34404 27.9867 9.0507 27.86C8.76404 27.7267 8.54404 27.5467 8.3907 27.32C8.23737 27.0867 8.1607 26.82 8.1607 26.52C8.1607 26.2467 8.22404 26 8.3507 25.78C8.48404 25.5533 8.69737 25.3733 8.9907 25.24C9.2907 25.1 9.6907 25.03 10.1907 25.03H12.0007V25.56H10.2107C9.70404 25.56 9.3507 25.65 9.1507 25.83C8.95737 26.01 8.8607 26.2333 8.8607 26.5C8.8607 26.8 8.97737 27.04 9.2107 27.22C9.44404 27.4 9.7707 27.49 10.1907 27.49C10.5907 27.49 10.934 27.4 11.2207 27.22C11.514 27.0333 11.7274 26.7667 11.8607 26.42L12.0207 26.91C11.8874 27.2567 11.654 27.5333 11.3207 27.74C10.994 27.9467 10.5807 28.05 10.0807 28.05ZM15.9634 28.06C15.5834 28.06 15.2067 28.0067 14.8334 27.9C14.46 27.7933 14.13 27.63 13.8434 27.41L14.0734 26.88C14.3267 27.0667 14.62 27.21 14.9534 27.31C15.2867 27.4033 15.6167 27.45 15.9434 27.45C16.27 27.4433 16.5534 27.3967 16.7934 27.31C17.0334 27.2233 17.22 27.1033 17.3534 26.95C17.4867 26.7967 17.5534 26.6233 17.5534 26.43C17.5534 26.15 17.4267 25.9333 17.1734 25.78C16.92 25.62 16.5734 25.54 16.1334 25.54H15.2334V25.02H16.0834C16.3434 25.02 16.5734 24.9867 16.7734 24.92C16.9734 24.8533 17.1267 24.7567 17.2334 24.63C17.3467 24.5033 17.4034 24.3533 17.4034 24.18C17.4034 23.9933 17.3367 23.8333 17.2034 23.7C17.0767 23.5667 16.9 23.4667 16.6734 23.4C16.4467 23.3333 16.19 23.3 15.9034 23.3C15.6434 23.3067 15.3734 23.3467 15.0934 23.42C14.8134 23.4867 14.5367 23.59 14.2634 23.73L14.0634 23.18C14.37 23.02 14.6734 22.9 14.9734 22.82C15.28 22.7333 15.5867 22.69 15.8934 22.69C16.3134 22.6767 16.69 22.7267 17.0234 22.84C17.3634 22.9533 17.6334 23.1167 17.8334 23.33C18.0334 23.5367 18.1334 23.7867 18.1334 24.08C18.1334 24.34 18.0534 24.5667 17.8934 24.76C17.7334 24.9533 17.52 25.1033 17.2534 25.21C16.9867 25.3167 16.6834 25.37 16.3434 25.37L16.3734 25.18C16.9734 25.18 17.44 25.2967 17.7734 25.53C18.1134 25.7633 18.2834 26.08 18.2834 26.48C18.2834 26.7933 18.18 27.07 17.9734 27.31C17.7667 27.5433 17.4867 27.7267 17.1334 27.86C16.7867 27.9933 16.3967 28.06 15.9634 28.06ZM22.8052 28.05C22.3518 28.05 21.9418 27.9467 21.5752 27.74C21.2085 27.5267 20.9152 27.2233 20.6952 26.83C20.4818 26.43 20.3752 25.9433 20.3752 25.37C20.3752 24.7967 20.4818 24.3133 20.6952 23.92C20.9085 23.52 21.1985 23.2167 21.5652 23.01C21.9318 22.8033 22.3452 22.7 22.8052 22.7C23.3052 22.7 23.7518 22.8133 24.1452 23.04C24.5452 23.26 24.8585 23.5733 25.0852 23.98C25.3118 24.38 25.4252 24.8433 25.4252 25.37C25.4252 25.9033 25.3118 26.37 25.0852 26.77C24.8585 27.17 24.5452 27.4833 24.1452 27.71C23.7518 27.9367 23.3052 28.05 22.8052 28.05ZM20.0952 29.94V22.75H20.7752V24.33L20.7052 25.38L20.8052 26.44V29.94H20.0952ZM22.7552 27.42C23.1285 27.42 23.4618 27.3367 23.7552 27.17C24.0485 26.9967 24.2818 26.7567 24.4552 26.45C24.6285 26.1367 24.7152 25.7767 24.7152 25.37C24.7152 24.9633 24.6285 24.6067 24.4552 24.3C24.2818 23.9933 24.0485 23.7533 23.7552 23.58C23.4618 23.4067 23.1285 23.32 22.7552 23.32C22.3818 23.32 22.0452 23.4067 21.7452 23.58C21.4518 23.7533 21.2185 23.9933 21.0452 24.3C20.8785 24.6067 20.7952 24.9633 20.7952 25.37C20.7952 25.7767 20.8785 26.1367 21.0452 26.45C21.2185 26.7567 21.4518 26.9967 21.7452 27.17C22.0452 27.3367 22.3818 27.42 22.7552 27.42ZM30.3813 28V26.84L30.3513 26.65V24.71C30.3513 24.2633 30.2247 23.92 29.9713 23.68C29.7247 23.44 29.3547 23.32 28.8613 23.32C28.5213 23.32 28.198 23.3767 27.8913 23.49C27.5847 23.6033 27.3247 23.7533 27.1113 23.94L26.7913 23.41C27.058 23.1833 27.378 23.01 27.7513 22.89C28.1247 22.7633 28.518 22.7 28.9313 22.7C29.6113 22.7 30.1347 22.87 30.5013 23.21C30.8747 23.5433 31.0613 24.0533 31.0613 24.74V28H30.3813ZM28.5713 28.05C28.178 28.05 27.8347 27.9867 27.5413 27.86C27.2547 27.7267 27.0347 27.5467 26.8813 27.32C26.728 27.0867 26.6513 26.82 26.6513 26.52C26.6513 26.2467 26.7147 26 26.8413 25.78C26.9747 25.5533 27.188 25.3733 27.4813 25.24C27.7813 25.1 28.1813 25.03 28.6813 25.03H30.4913V25.56H28.7013C28.1947 25.56 27.8413 25.65 27.6413 25.83C27.448 26.01 27.3513 26.2333 27.3513 26.5C27.3513 26.8 27.468 27.04 27.7013 27.22C27.9347 27.4 28.2613 27.49 28.6813 27.49C29.0813 27.49 29.4247 27.4 29.7113 27.22C30.0047 27.0333 30.218 26.7667 30.3513 26.42L30.5113 26.91C30.378 27.2567 30.1447 27.5333 29.8113 27.74C29.4847 27.9467 29.0713 28.05 28.5713 28.05ZM35.5114 28.06C35.0847 28.06 34.7047 27.99 34.3714 27.85C34.0447 27.71 33.7647 27.4967 33.5314 27.21C33.2981 26.9233 33.1214 26.57 33.0014 26.15C32.8814 25.7233 32.8214 25.23 32.8214 24.67C32.8214 24.17 32.8681 23.7333 32.9614 23.36C33.0547 22.98 33.1847 22.6533 33.3514 22.38C33.5181 22.1067 33.7114 21.8767 33.9314 21.69C34.1581 21.4967 34.4014 21.3433 34.6614 21.23C34.9281 21.11 35.2014 21.02 35.4814 20.96L37.8414 20.41L37.9614 21.07L35.7414 21.57C35.6014 21.6033 35.4314 21.65 35.2314 21.71C35.0381 21.77 34.8381 21.86 34.6314 21.98C34.4314 22.1 34.2447 22.2667 34.0714 22.48C33.8981 22.6933 33.7581 22.97 33.6514 23.31C33.5514 23.6433 33.5014 24.06 33.5014 24.56C33.5014 24.6667 33.5047 24.7533 33.5114 24.82C33.5181 24.88 33.5247 24.9467 33.5314 25.02C33.5447 25.0867 33.5547 25.1867 33.5614 25.32L33.2514 25.06C33.3247 24.6533 33.4747 24.3 33.7014 24C33.9281 23.6933 34.2114 23.4567 34.5514 23.29C34.8981 23.1167 35.2814 23.03 35.7014 23.03C36.1881 23.03 36.6214 23.1367 37.0014 23.35C37.3814 23.5567 37.6781 23.8467 37.8914 24.22C38.1114 24.5933 38.2214 25.0267 38.2214 25.52C38.2214 26.0067 38.1081 26.4433 37.8814 26.83C37.6614 27.2167 37.3481 27.52 36.9414 27.74C36.5347 27.9533 36.0581 28.06 35.5114 28.06ZM35.5914 27.47C35.9647 27.47 36.2947 27.3867 36.5814 27.22C36.8681 27.0467 37.0914 26.8133 37.2514 26.52C37.4181 26.2267 37.5014 25.8967 37.5014 25.53C37.5014 25.17 37.4181 24.85 37.2514 24.57C37.0914 24.29 36.8681 24.07 36.5814 23.91C36.2947 23.7433 35.9614 23.66 35.5814 23.66C35.2081 23.66 34.8781 23.74 34.5914 23.9C34.3047 24.0533 34.0781 24.27 33.9114 24.55C33.7514 24.83 33.6714 25.1533 33.6714 25.52C33.6714 25.8867 33.7514 26.2167 33.9114 26.51C34.0781 26.8033 34.3047 27.0367 34.5914 27.21C34.8847 27.3833 35.2181 27.47 35.5914 27.47ZM42.1032 28.05C41.5965 28.05 41.1399 27.9367 40.7332 27.71C40.3332 27.4767 40.0165 27.16 39.7832 26.76C39.5499 26.3533 39.4332 25.89 39.4332 25.37C39.4332 24.8433 39.5499 24.38 39.7832 23.98C40.0165 23.58 40.3332 23.2667 40.7332 23.04C41.1332 22.8133 41.5899 22.7 42.1032 22.7C42.6232 22.7 43.0832 22.8133 43.4832 23.04C43.8899 23.2667 44.2065 23.58 44.4332 23.98C44.6665 24.38 44.7832 24.8433 44.7832 25.37C44.7832 25.89 44.6665 26.3533 44.4332 26.76C44.2065 27.16 43.8899 27.4767 43.4832 27.71C43.0765 27.9367 42.6165 28.05 42.1032 28.05ZM42.1032 27.42C42.4832 27.42 42.8199 27.3367 43.1132 27.17C43.4065 26.9967 43.6365 26.7567 43.8032 26.45C43.9765 26.1367 44.0632 25.7767 44.0632 25.37C44.0632 24.9567 43.9765 24.5967 43.8032 24.29C43.6365 23.9833 43.4065 23.7467 43.1132 23.58C42.8199 23.4067 42.4865 23.32 42.1132 23.32C41.7399 23.32 41.4065 23.4067 41.1132 23.58C40.8199 23.7467 40.5865 23.9833 40.4132 24.29C40.2399 24.5967 40.1532 24.9567 40.1532 25.37C40.1532 25.7767 40.2399 26.1367 40.4132 26.45C40.5865 26.7567 40.8199 26.9967 41.1132 27.17C41.4065 27.3367 41.7365 27.42 42.1032 27.42ZM47.3053 28V23.18L47.4853 23.37H45.3153V22.75H50.0053V23.37H47.8353L48.0153 23.18V28H47.3053ZM54.4919 28V26.84L54.4619 26.65V24.71C54.4619 24.2633 54.3352 23.92 54.0819 23.68C53.8352 23.44 53.4652 23.32 52.9719 23.32C52.6319 23.32 52.3085 23.3767 52.0019 23.49C51.6952 23.6033 51.4352 23.7533 51.2219 23.94L50.9019 23.41C51.1685 23.1833 51.4885 23.01 51.8619 22.89C52.2352 22.7633 52.6285 22.7 53.0419 22.7C53.7219 22.7 54.2452 22.87 54.6119 23.21C54.9852 23.5433 55.1719 24.0533 55.1719 24.74V28H54.4919ZM52.6819 28.05C52.2885 28.05 51.9452 27.9867 51.6519 27.86C51.3652 27.7267 51.1452 27.5467 50.9919 27.32C50.8385 27.0867 50.7619 26.82 50.7619 26.52C50.7619 26.2467 50.8252 26 50.9519 25.78C51.0852 25.5533 51.2985 25.3733 51.5919 25.24C51.8919 25.1 52.2919 25.03 52.7919 25.03H54.6019V25.56H52.8119C52.3052 25.56 51.9519 25.65 51.7519 25.83C51.5585 26.01 51.4619 26.2333 51.4619 26.5C51.4619 26.8 51.5785 27.04 51.8119 27.22C52.0452 27.4 52.3719 27.49 52.7919 27.49C53.1919 27.49 53.5352 27.4 53.8219 27.22C54.1152 27.0333 54.3285 26.7667 54.4619 26.42L54.6219 26.91C54.4885 27.2567 54.2552 27.5333 53.9219 27.74C53.5952 27.9467 53.1819 28.05 52.6819 28.05ZM57.262 28V22.75H57.972V25.07H61.282V22.75H61.992V28H61.282V25.68H57.972V28H57.262ZM18.0104 41V35.75H20.3304C20.9237 35.75 21.3904 35.8633 21.7304 36.09C22.0771 36.3167 22.2504 36.65 22.2504 37.09C22.2504 37.5167 22.0871 37.8467 21.7604 38.08C21.4337 38.3067 21.0037 38.42 20.4704 38.42L20.6104 38.21C21.2371 38.21 21.6971 38.3267 21.9904 38.56C22.2837 38.7933 22.4304 39.13 22.4304 39.57C22.4304 40.0233 22.2637 40.3767 21.9304 40.63C21.6037 40.8767 21.0937 41 20.4004 41H18.0104ZM18.7004 40.44H20.3704C20.8171 40.44 21.1537 40.37 21.3804 40.23C21.6137 40.0833 21.7304 39.85 21.7304 39.53C21.7304 39.21 21.6271 38.9767 21.4204 38.83C21.2137 38.6833 20.8871 38.61 20.4404 38.61H18.7004V40.44ZM18.7004 38.08H20.2804C20.6871 38.08 20.9971 38.0033 21.2104 37.85C21.4304 37.6967 21.5404 37.4733 21.5404 37.18C21.5404 36.8867 21.4304 36.6667 21.2104 36.52C20.9971 36.3733 20.6871 36.3 20.2804 36.3H18.7004V38.08ZM29.3116 41.05C28.7916 41.05 28.3249 40.9367 27.9116 40.71C27.5049 40.4767 27.1849 40.16 26.9516 39.76C26.7182 39.3533 26.6016 38.89 26.6016 38.37C26.6016 37.8433 26.7182 37.38 26.9516 36.98C27.1849 36.58 27.5049 36.2667 27.9116 36.04C28.3249 35.8133 28.7916 35.7 29.3116 35.7C29.7582 35.7 30.1616 35.7867 30.5216 35.96C30.8816 36.1333 31.1649 36.3933 31.3716 36.74L30.8416 37.1C30.6616 36.8333 30.4382 36.6367 30.1716 36.51C29.9049 36.3833 29.6149 36.32 29.3016 36.32C28.9282 36.32 28.5916 36.4067 28.2916 36.58C27.9916 36.7467 27.7549 36.9833 27.5816 37.29C27.4082 37.5967 27.3216 37.9567 27.3216 38.37C27.3216 38.7833 27.4082 39.1433 27.5816 39.45C27.7549 39.7567 27.9916 39.9967 28.2916 40.17C28.5916 40.3367 28.9282 40.42 29.3016 40.42C29.6149 40.42 29.9049 40.3567 30.1716 40.23C30.4382 40.1033 30.6616 39.91 30.8416 39.65L31.3716 40.01C31.1649 40.35 30.8816 40.61 30.5216 40.79C30.1616 40.9633 29.7582 41.05 29.3116 41.05ZM33.8487 41V36.18L34.0287 36.37H31.8587V35.75H36.5487V36.37H34.3787L34.5587 36.18V41H33.8487ZM37.8652 42.99C37.6186 42.99 37.3819 42.95 37.1552 42.87C36.9352 42.79 36.7452 42.67 36.5852 42.51L36.9152 41.98C37.0486 42.1067 37.1919 42.2033 37.3452 42.27C37.5052 42.3433 37.6819 42.38 37.8752 42.38C38.1086 42.38 38.3086 42.3133 38.4752 42.18C38.6486 42.0533 38.8119 41.8267 38.9652 41.5L39.3052 40.73L39.3852 40.62L41.5452 35.75H42.2452L39.6152 41.63C39.4686 41.97 39.3052 42.24 39.1252 42.44C38.9519 42.64 38.7619 42.78 38.5552 42.86C38.3486 42.9467 38.1186 42.99 37.8652 42.99ZM39.2652 41.15L36.8452 35.75H37.5852L39.7252 40.57L39.2652 41.15ZM46.9268 40.66V36.37H44.3968L44.3368 37.54C44.3235 37.8933 44.3001 38.24 44.2668 38.58C44.2401 38.92 44.1901 39.2333 44.1168 39.52C44.0501 39.8 43.9535 40.03 43.8268 40.21C43.7001 40.3833 43.5368 40.4833 43.3368 40.51L42.6268 40.38C42.8335 40.3867 43.0035 40.3133 43.1368 40.16C43.2701 40 43.3735 39.7833 43.4468 39.51C43.5201 39.2367 43.5735 38.9267 43.6068 38.58C43.6401 38.2267 43.6668 37.8667 43.6868 37.5L43.7568 35.75H47.6368V40.66H46.9268ZM42.4068 42.27V40.38H48.4568V42.27H47.7868V41H43.0768V42.27H42.4068ZM50.0405 41V35.75H50.7505V39.92L54.2605 35.75H54.8905V41H54.1805V36.82L50.6805 41H50.0405ZM57.1252 41V35.75H57.8352V39.92L61.3452 35.75H61.9752V41H61.2652V36.82L57.7652 41H57.1252Z" fill="white"/>
<defs>
<clipPath id="clip0_3401_1441">
<rect width="73" height="44" fill="white" transform="translate(70)"/>
</clipPath>
</defs>
</svg>
