<svg width="142" height="45" viewBox="0 0 142 45" fill="none" xmlns="http://www.w3.org/2000/svg">
			<g clip-path="url(#clip0_401_1561)">
			<path
			d="M73.6097 31.5614L69 34.0594V31.4762L73.6097 28.7794L77.1666 30.7665V11.1794L73.6097 9.2207V6.43876L82.8291 11.4916V11.5484V14.2736V33.889L87.7234 36.6142L92.3331 33.9742V25.6568L85.8453 22.1084V19.3265L97.9956 25.9407V33.7188L87.7234 39.4246L73.6097 31.5614ZM82.8291 5.87102L73.6097 0.818115V3.60005L82.8291 8.65296V5.87102ZM87.7519 42.0362L73.6382 34.1729L69.0285 36.8697V39.4814L73.6382 36.9549L87.7519 44.8181L98.0241 39.1123V36.1316L87.7519 42.0362Z"
			fill="#2B2B2B" />
			<path
			d="M108.809 32.9675C108.412 32.9675 108.015 32.9675 107.647 32.9391C107.25 32.9106 106.853 32.8539 106.428 32.7687V25.7832C106.768 25.7264 107.108 25.6697 107.505 25.6412C107.902 25.6128 108.271 25.5845 108.611 25.5845C109.065 25.5845 109.49 25.6128 109.858 25.6697C110.255 25.7264 110.567 25.84 110.851 26.0104C111.134 26.1808 111.333 26.3796 111.503 26.6351C111.645 26.8907 111.73 27.2031 111.73 27.6006C111.73 28.1685 111.446 28.6228 110.908 28.9636C111.361 29.134 111.673 29.3612 111.843 29.6735C112.013 29.9575 112.098 30.2982 112.098 30.6674C112.098 31.4341 111.815 31.9736 111.276 32.3711C110.709 32.7687 109.887 32.9675 108.809 32.9675ZM107.987 28.5092H108.781C109.291 28.5092 109.632 28.4525 109.858 28.3104C110.085 28.1969 110.17 27.9697 110.17 27.6857C110.17 27.4018 110.057 27.2031 109.83 27.061C109.603 26.9474 109.291 26.8907 108.866 26.8907C108.724 26.8907 108.583 26.8907 108.412 26.8907C108.242 26.8907 108.1 26.8907 107.987 26.9191V28.5092ZM107.987 29.7303V31.576C108.1 31.576 108.242 31.6045 108.384 31.6045C108.526 31.6045 108.668 31.6045 108.838 31.6045C109.32 31.6045 109.717 31.5477 110 31.4057C110.284 31.2637 110.454 31.0082 110.454 30.639C110.454 30.2982 110.341 30.0711 110.085 29.929C109.83 29.7871 109.49 29.7303 109.008 29.7303H107.987Z"
			fill="#2B2B2B" />
			<path
			d="M118.563 30.1279C118.563 30.5538 118.507 30.9513 118.365 31.2921C118.251 31.6613 118.053 31.9452 117.826 32.2008C117.599 32.4564 117.316 32.6552 116.976 32.7971C116.635 32.939 116.267 32.9959 115.87 32.9959C115.473 32.9959 115.104 32.939 114.764 32.7971C114.424 32.6552 114.168 32.4564 113.913 32.2008C113.686 31.9452 113.488 31.6329 113.375 31.2921C113.261 30.9513 113.176 30.5538 113.176 30.1279C113.176 29.7019 113.233 29.3044 113.375 28.9636C113.516 28.6228 113.686 28.3105 113.942 28.0549C114.168 27.7993 114.452 27.6005 114.792 27.487C115.132 27.345 115.473 27.2882 115.87 27.2882C116.267 27.2882 116.635 27.345 116.947 27.487C117.287 27.6289 117.543 27.8277 117.798 28.0549C118.025 28.3105 118.223 28.5944 118.336 28.9636C118.507 29.3044 118.563 29.7019 118.563 30.1279ZM117.004 30.1279C117.004 29.6451 116.919 29.276 116.72 28.992C116.522 28.708 116.267 28.5944 115.898 28.5944C115.558 28.5944 115.274 28.7364 115.076 28.992C114.877 29.276 114.792 29.6451 114.792 30.1279C114.792 30.6106 114.877 30.9797 115.076 31.2637C115.274 31.5477 115.529 31.6896 115.898 31.6896C116.238 31.6896 116.522 31.5477 116.72 31.2637C116.89 30.9797 117.004 30.6106 117.004 30.1279Z"
			fill="#2B2B2B" />
			<path
			d="M123.185 28.7652C123.043 28.7368 122.873 28.7085 122.703 28.6516C122.505 28.6232 122.306 28.5949 122.108 28.5949C122.023 28.5949 121.909 28.5949 121.767 28.6232C121.626 28.6516 121.541 28.6516 121.456 28.68V32.8543H119.924V27.6862C120.208 27.601 120.52 27.4874 120.888 27.4022C121.257 27.317 121.682 27.2603 122.136 27.2603C122.221 27.2603 122.306 27.2603 122.448 27.2886C122.561 27.2886 122.675 27.317 122.788 27.317C122.902 27.3454 123.015 27.3454 123.128 27.3738C123.242 27.4022 123.355 27.4306 123.44 27.459L123.185 28.7652Z"
			fill="#2B2B2B" />
			<path
			d="M129.479 30.1279C129.479 30.5538 129.422 30.9513 129.281 31.2921C129.139 31.6329 128.969 31.9452 128.742 32.2008C128.515 32.4564 128.232 32.6552 127.891 32.7971C127.551 32.939 127.182 32.9959 126.785 32.9959C126.389 32.9959 126.02 32.939 125.68 32.7971C125.339 32.6552 125.084 32.4564 124.829 32.2008C124.574 31.9452 124.404 31.6329 124.29 31.2921C124.177 30.9513 124.092 30.5538 124.092 30.1279C124.092 29.7019 124.149 29.3044 124.29 28.9636C124.432 28.6228 124.602 28.3105 124.857 28.0549C125.084 27.7993 125.368 27.6005 125.708 27.487C126.048 27.345 126.389 27.2882 126.785 27.2882C127.182 27.2882 127.551 27.345 127.863 27.487C128.203 27.6289 128.458 27.8277 128.714 28.0549C128.94 28.3105 129.139 28.5944 129.252 28.9636C129.422 29.3044 129.479 29.7019 129.479 30.1279ZM127.891 30.1279C127.891 29.6451 127.806 29.276 127.608 28.992C127.409 28.708 127.154 28.5944 126.785 28.5944C126.445 28.5944 126.162 28.7364 125.963 28.992C125.765 29.276 125.68 29.6451 125.68 30.1279C125.68 30.6106 125.765 30.9797 125.963 31.2637C126.162 31.5477 126.417 31.6896 126.785 31.6896C127.126 31.6896 127.409 31.5477 127.608 31.2637C127.806 30.9797 127.891 30.6106 127.891 30.1279Z"
			fill="#2B2B2B" />
			<path
			d="M135.632 32.6837C135.49 32.712 135.349 32.7688 135.15 32.7972C134.98 32.8256 134.782 32.854 134.583 32.8824C134.385 32.9108 134.186 32.9392 133.988 32.9392C133.789 32.9676 133.591 32.9676 133.392 32.9676C132.939 32.9676 132.542 32.9108 132.201 32.7688C131.861 32.6268 131.549 32.4564 131.322 32.2009C131.067 31.9453 130.897 31.6614 130.755 31.3206C130.642 30.9798 130.557 30.5823 130.557 30.1564C130.557 29.702 130.613 29.3045 130.727 28.9637C130.84 28.5946 130.982 28.3106 131.209 28.055C131.407 27.7995 131.663 27.629 131.975 27.4871C132.286 27.3451 132.627 27.2883 132.995 27.2883C133.222 27.2883 133.392 27.3167 133.562 27.3451C133.733 27.3735 133.903 27.4587 134.073 27.5155V25.045L135.632 24.8179V32.6837ZM132.145 30.0995C132.145 30.5823 132.258 30.9515 132.457 31.2638C132.683 31.5478 132.995 31.6898 133.421 31.6898C133.562 31.6898 133.676 31.6898 133.818 31.6614C133.931 31.6614 134.044 31.6329 134.101 31.6329V28.8217C134.016 28.7649 133.874 28.7082 133.733 28.6798C133.591 28.6513 133.421 28.6229 133.25 28.6229C132.513 28.5946 132.145 29.1057 132.145 30.0995Z"
			fill="#2B2B2B" />
			<path
			d="M139.205 27.2603C139.659 27.2603 140.027 27.317 140.339 27.4022C140.651 27.5158 140.878 27.6578 141.077 27.8565C141.247 28.0553 141.388 28.2825 141.473 28.5664C141.558 28.8504 141.587 29.1627 141.587 29.4751V32.684C141.36 32.7407 141.048 32.7975 140.679 32.8543C140.283 32.9111 139.801 32.9395 139.262 32.9395C138.922 32.9395 138.581 32.9111 138.298 32.8543C138.014 32.7975 137.759 32.684 137.561 32.5419C137.362 32.4 137.192 32.2012 137.079 31.974C136.965 31.7468 136.908 31.4629 136.908 31.1221C136.908 30.8097 136.965 30.5258 137.107 30.3271C137.22 30.0998 137.419 29.9295 137.617 29.7875C137.844 29.6455 138.071 29.5603 138.354 29.5036C138.638 29.4467 138.922 29.4184 139.205 29.4184C139.404 29.4184 139.574 29.4184 139.744 29.4467C139.886 29.4751 140.027 29.4751 140.112 29.5036V29.3615C140.112 29.106 140.027 28.8788 139.886 28.7368C139.715 28.5664 139.46 28.5097 139.063 28.5097C138.808 28.5097 138.553 28.538 138.298 28.5664C138.043 28.5949 137.816 28.6516 137.646 28.7368L137.447 27.4874C137.532 27.459 137.646 27.4306 137.787 27.4022C137.929 27.3738 138.071 27.3454 138.241 27.317C138.411 27.2886 138.553 27.2603 138.751 27.2603C138.865 27.2603 139.035 27.2603 139.205 27.2603ZM139.347 31.7753C139.489 31.7753 139.63 31.7753 139.772 31.7753C139.914 31.7753 140.027 31.7468 140.112 31.7468V30.5826C140.056 30.5826 139.971 30.5542 139.829 30.5542C139.715 30.5542 139.602 30.5258 139.489 30.5258C139.347 30.5258 139.205 30.5258 139.092 30.5542C138.95 30.5826 138.865 30.6109 138.751 30.6394C138.666 30.6962 138.581 30.753 138.525 30.8382C138.468 30.9233 138.44 31.037 138.44 31.1505C138.44 31.4061 138.525 31.5481 138.695 31.6617C138.836 31.7468 139.063 31.7753 139.347 31.7753Z"
			fill="#2B2B2B" />
			<path
			d="M109.688 37.6528C109.688 37.9935 109.632 38.3058 109.518 38.5614C109.405 38.817 109.263 39.0157 109.065 39.1862C108.866 39.3565 108.639 39.4701 108.356 39.5552C108.072 39.6405 107.789 39.6688 107.448 39.6688C107.278 39.6688 107.108 39.6688 106.91 39.6405C106.711 39.6405 106.541 39.6121 106.371 39.5552V35.6934C106.541 35.665 106.711 35.6366 106.91 35.6082C107.108 35.6082 107.278 35.5798 107.448 35.5798C107.76 35.5798 108.072 35.6082 108.356 35.6934C108.639 35.7785 108.866 35.8921 109.065 36.0625C109.263 36.2329 109.405 36.4317 109.518 36.6872C109.632 36.9996 109.688 37.3119 109.688 37.6528ZM107.533 39.1862C108.072 39.1862 108.469 39.0441 108.724 38.7886C108.98 38.5046 109.121 38.1354 109.121 37.6528C109.121 37.17 108.98 36.8008 108.724 36.5169C108.469 36.2329 108.072 36.1194 107.533 36.1194C107.363 36.1194 107.25 36.1194 107.165 36.1194C107.08 36.1194 107.023 36.1194 106.995 36.1194V39.1577C107.023 39.1577 107.08 39.1577 107.165 39.1577C107.25 39.1862 107.363 39.1862 107.533 39.1862Z"
			fill="#2B2B2B" />
			<path
			d="M111.163 36.1195C111.078 36.1195 110.993 36.0911 110.908 36.0344C110.851 35.9775 110.794 35.8923 110.794 35.7787C110.794 35.6652 110.823 35.58 110.908 35.5232C110.964 35.4664 111.049 35.438 111.163 35.438C111.248 35.438 111.333 35.4664 111.418 35.5232C111.475 35.58 111.531 35.6652 111.531 35.7787C111.531 35.8923 111.503 35.9775 111.418 36.0344C111.333 36.0911 111.248 36.1195 111.163 36.1195ZM111.418 39.6407H110.879V36.6591H111.418V39.6407Z"
			fill="#2B2B2B" />
			<path
			d="M114.594 39.3281C114.537 39.3565 114.452 39.3849 114.339 39.4417C114.197 39.4985 114.055 39.5269 113.885 39.5269C113.715 39.5269 113.545 39.4985 113.375 39.4417C113.205 39.3849 113.091 39.2997 112.949 39.1862C112.836 39.0725 112.751 38.9022 112.666 38.7318C112.609 38.5614 112.553 38.3342 112.553 38.0787C112.553 37.8515 112.581 37.6527 112.638 37.4823C112.694 37.3119 112.808 37.1416 112.921 36.9996C113.034 36.8576 113.205 36.7724 113.375 36.6872C113.545 36.602 113.743 36.5736 113.97 36.5736C114.225 36.5736 114.424 36.602 114.622 36.6305C114.821 36.6589 114.963 36.6872 115.076 36.7441V39.4133C115.076 39.8676 114.963 40.2084 114.707 40.4071C114.481 40.6059 114.112 40.7196 113.63 40.7196C113.431 40.7196 113.261 40.6911 113.091 40.6627C112.921 40.6344 112.779 40.6059 112.666 40.5491L112.751 40.0948C112.864 40.1232 112.978 40.18 113.148 40.2084C113.29 40.2368 113.46 40.2652 113.63 40.2652C113.942 40.2652 114.169 40.2084 114.31 40.0664C114.452 39.9528 114.509 39.7257 114.509 39.47V39.3281H114.594ZM114.594 37.1132C114.537 37.0848 114.481 37.0848 114.367 37.0564C114.254 37.028 114.169 37.0279 113.999 37.0279C113.715 37.0279 113.488 37.1132 113.346 37.3119C113.205 37.5107 113.12 37.7379 113.12 38.0502C113.12 38.2206 113.148 38.3626 113.176 38.5046C113.233 38.6182 113.29 38.7318 113.346 38.817C113.431 38.9022 113.517 38.9589 113.602 38.9874C113.687 39.0157 113.8 39.0441 113.913 39.0441C114.055 39.0441 114.197 39.0157 114.31 38.9874C114.424 38.9589 114.509 38.9022 114.594 38.8453V37.1132Z"
			fill="#2B2B2B" />
			<path
			d="M116.692 36.1195C116.607 36.1195 116.522 36.0911 116.436 36.0344C116.38 35.9775 116.323 35.8923 116.323 35.7787C116.323 35.6652 116.351 35.58 116.436 35.5232C116.493 35.4664 116.578 35.438 116.692 35.438C116.777 35.438 116.862 35.4664 116.947 35.5232C117.004 35.58 117.06 35.6652 117.06 35.7787C117.06 35.8923 117.032 35.9775 116.947 36.0344C116.89 36.0911 116.805 36.1195 116.692 36.1195ZM116.975 39.6407H116.436V36.6591H116.975V39.6407Z"
			fill="#2B2B2B" />
			<path
			d="M118.79 36.6587H119.924V37.113H118.79V38.5045C118.79 38.6464 118.79 38.7884 118.818 38.8736C118.847 38.9588 118.875 39.044 118.932 39.1008C118.988 39.1575 119.045 39.186 119.102 39.2144C119.159 39.2427 119.244 39.2427 119.329 39.2427C119.499 39.2427 119.612 39.2144 119.726 39.186C119.811 39.1575 119.896 39.1292 119.924 39.1008L120.038 39.5551C119.981 39.5835 119.896 39.6119 119.754 39.6687C119.612 39.6971 119.471 39.7255 119.3 39.7255C119.102 39.7255 118.932 39.6971 118.79 39.6403C118.648 39.5835 118.563 39.4984 118.478 39.4132C118.393 39.2996 118.336 39.186 118.308 39.044C118.28 38.902 118.251 38.7316 118.251 38.5045V35.8352L118.79 35.75V36.6587Z"
			fill="#2B2B2B" />
			<path
			d="M122.022 36.5736C122.249 36.5736 122.419 36.602 122.561 36.6589C122.703 36.7156 122.816 36.8008 122.93 36.886C123.015 36.9996 123.071 37.1132 123.128 37.2552C123.157 37.3971 123.185 37.5391 123.185 37.7095V39.5836C123.128 39.5836 123.071 39.6121 122.986 39.6121C122.901 39.6121 122.816 39.6405 122.703 39.6405C122.589 39.6405 122.476 39.6688 122.363 39.6688C122.249 39.6688 122.136 39.6973 121.994 39.6973C121.824 39.6973 121.682 39.6688 121.54 39.6405C121.399 39.6121 121.285 39.5552 121.172 39.47C121.058 39.3849 121.002 39.2997 120.917 39.1862C120.86 39.0725 120.831 38.9022 120.831 38.7318C120.831 38.5614 120.86 38.4194 120.945 38.3058C121.002 38.1923 121.115 38.0787 121.228 38.0218C121.342 37.9366 121.484 37.9083 121.625 37.8515C121.767 37.8231 121.937 37.7947 122.107 37.7947C122.164 37.7947 122.221 37.7947 122.278 37.7947C122.334 37.7947 122.391 37.7947 122.448 37.8231C122.504 37.8231 122.533 37.8515 122.589 37.8515C122.618 37.8515 122.646 37.8515 122.674 37.8799V37.7379C122.674 37.6528 122.674 37.5675 122.646 37.4823C122.618 37.3971 122.589 37.3119 122.533 37.2552C122.476 37.1984 122.419 37.1416 122.334 37.0848C122.249 37.0564 122.136 37.0279 121.994 37.0279C121.824 37.0279 121.654 37.028 121.54 37.0564C121.399 37.0848 121.313 37.1132 121.257 37.1416L121.2 36.6872C121.257 36.6589 121.37 36.6305 121.54 36.602C121.654 36.602 121.824 36.5736 122.022 36.5736ZM122.079 39.2429C122.192 39.2429 122.306 39.2429 122.419 39.2429C122.504 39.2429 122.589 39.2145 122.674 39.2145V38.3342C122.646 38.3058 122.561 38.3058 122.476 38.2775C122.391 38.2775 122.278 38.249 122.164 38.249C122.079 38.249 121.994 38.249 121.909 38.2775C121.824 38.2775 121.739 38.3058 121.654 38.3626C121.569 38.391 121.512 38.4478 121.455 38.5046C121.399 38.5614 121.37 38.6466 121.37 38.7601C121.37 38.9589 121.427 39.0725 121.54 39.1577C121.682 39.2145 121.852 39.2429 122.079 39.2429Z"
			fill="#2B2B2B" />
			<path
			d="M125.34 39.6974C125 39.6974 124.773 39.6121 124.632 39.4986C124.49 39.3565 124.433 39.1578 124.433 38.8739V35.2959L124.972 35.2107V38.7887C124.972 38.8739 124.972 38.9591 125 39.0158C125.029 39.0726 125.029 39.1294 125.085 39.1578C125.114 39.1862 125.17 39.2146 125.227 39.243C125.284 39.2714 125.369 39.2714 125.425 39.2998L125.34 39.6974Z"
			fill="#2B2B2B" />
			</g>
			<path
			d="M41.1185 15.8781C40.5919 15.8781 40.1052 15.7914 39.6585 15.6181C39.2119 15.4381 38.8252 15.1881 38.4985 14.8681C38.1719 14.5481 37.9152 14.1714 37.7285 13.7381C37.5485 13.3048 37.4585 12.8314 37.4585 12.3181C37.4585 11.8048 37.5485 11.3314 37.7285 10.8981C37.9152 10.4648 38.1719 10.0881 38.4985 9.76812C38.8319 9.44811 39.2219 9.20145 39.6685 9.02812C40.1152 8.84811 40.6019 8.75811 41.1285 8.75811C41.6352 8.75811 42.1119 8.84478 42.5585 9.01812C43.0052 9.18478 43.3819 9.43811 43.6885 9.77811L43.2185 10.2481C42.9319 9.95478 42.6152 9.74478 42.2685 9.61812C41.9219 9.48478 41.5485 9.41811 41.1485 9.41811C40.7285 9.41811 40.3385 9.49145 39.9785 9.63811C39.6185 9.77812 39.3052 9.98145 39.0385 10.2481C38.7719 10.5081 38.5619 10.8148 38.4085 11.1681C38.2619 11.5148 38.1885 11.8981 38.1885 12.3181C38.1885 12.7381 38.2619 13.1248 38.4085 13.4781C38.5619 13.8248 38.7719 14.1314 39.0385 14.3981C39.3052 14.6581 39.6185 14.8614 39.9785 15.0081C40.3385 15.1481 40.7285 15.2181 41.1485 15.2181C41.5485 15.2181 41.9219 15.1514 42.2685 15.0181C42.6152 14.8848 42.9319 14.6714 43.2185 14.3781L43.6885 14.8481C43.3819 15.1881 43.0052 15.4448 42.5585 15.6181C42.1119 15.7914 41.6319 15.8781 41.1185 15.8781ZM48.4286 15.8181V14.6581L48.3986 14.4681V12.5281C48.3986 12.0814 48.2719 11.7381 48.0186 11.4981C47.7719 11.2581 47.4019 11.1381 46.9086 11.1381C46.5686 11.1381 46.2453 11.1948 45.9386 11.3081C45.6319 11.4214 45.3719 11.5714 45.1586 11.7581L44.8386 11.2281C45.1053 11.0014 45.4253 10.8281 45.7986 10.7081C46.1719 10.5814 46.5653 10.5181 46.9786 10.5181C47.6586 10.5181 48.1819 10.6881 48.5486 11.0281C48.9219 11.3614 49.1086 11.8714 49.1086 12.5581V15.8181H48.4286ZM46.6186 15.8681C46.2253 15.8681 45.8819 15.8048 45.5886 15.6781C45.3019 15.5448 45.0819 15.3648 44.9286 15.1381C44.7753 14.9048 44.6986 14.6381 44.6986 14.3381C44.6986 14.0648 44.7619 13.8181 44.8886 13.5981C45.0219 13.3714 45.2353 13.1914 45.5286 13.0581C45.8286 12.9181 46.2286 12.8481 46.7286 12.8481H48.5386V13.3781H46.7486C46.2419 13.3781 45.8886 13.4681 45.6886 13.6481C45.4953 13.8281 45.3986 14.0514 45.3986 14.3181C45.3986 14.6181 45.5153 14.8581 45.7486 15.0381C45.9819 15.2181 46.3086 15.3081 46.7286 15.3081C47.1286 15.3081 47.4719 15.2181 47.7586 15.0381C48.0519 14.8514 48.2653 14.5848 48.3986 14.2381L48.5586 14.7281C48.4253 15.0748 48.1919 15.3514 47.8586 15.5581C47.5319 15.7648 47.1186 15.8681 46.6186 15.8681ZM51.1987 15.8181V10.5681H51.9087V14.7381L55.4187 10.5681H56.0487V15.8181H55.3387V11.6381L51.8387 15.8181H51.1987ZM53.5787 9.80812C53.1387 9.80812 52.782 9.69812 52.5087 9.47812C52.242 9.25145 52.102 8.92811 52.0887 8.50812H52.5987C52.6053 8.77478 52.6987 8.98478 52.8787 9.13811C53.0587 9.29145 53.292 9.36811 53.5787 9.36811C53.8653 9.36811 54.0987 9.29145 54.2787 9.13811C54.4653 8.98478 54.562 8.77478 54.5687 8.50812H55.0787C55.072 8.92811 54.932 9.25145 54.6587 9.47812C54.3853 9.69812 54.0253 9.80812 53.5787 9.80812ZM59.2834 15.8181V10.9981L59.4634 11.1881H57.2934V10.5681H61.9834V11.1881H59.8134L59.9934 10.9981V15.8181H59.2834ZM3.31453 28.8681C2.8612 28.8681 2.4512 28.7648 2.08453 28.5581C1.71787 28.3448 1.42453 28.0414 1.20453 27.6481C0.991199 27.2481 0.884532 26.7614 0.884532 26.1881C0.884532 25.6148 0.991199 25.1314 1.20453 24.7381C1.41787 24.3381 1.70787 24.0348 2.07453 23.8281C2.4412 23.6214 2.85453 23.5181 3.31453 23.5181C3.81453 23.5181 4.2612 23.6314 4.65453 23.8581C5.05453 24.0781 5.36787 24.3914 5.59453 24.7981C5.8212 25.1981 5.93453 25.6614 5.93453 26.1881C5.93453 26.7214 5.8212 27.1881 5.59453 27.5881C5.36787 27.9881 5.05453 28.3014 4.65453 28.5281C4.2612 28.7548 3.81453 28.8681 3.31453 28.8681ZM0.604532 30.7581V23.5681H1.28453V25.1481L1.21453 26.1981L1.31453 27.2581V30.7581H0.604532ZM3.26453 28.2381C3.63787 28.2381 3.9712 28.1548 4.26453 27.9881C4.55787 27.8148 4.7912 27.5748 4.96453 27.2681C5.13787 26.9548 5.22453 26.5948 5.22453 26.1881C5.22453 25.7814 5.13787 25.4248 4.96453 25.1181C4.7912 24.8114 4.55787 24.5714 4.26453 24.3981C3.9712 24.2248 3.63787 24.1381 3.26453 24.1381C2.8912 24.1381 2.55453 24.2248 2.25453 24.3981C1.9612 24.5714 1.72787 24.8114 1.55453 25.1181C1.38787 25.4248 1.30453 25.7814 1.30453 26.1881C1.30453 26.5948 1.38787 26.9548 1.55453 27.2681C1.72787 27.5748 1.9612 27.8148 2.25453 27.9881C2.55453 28.1548 2.8912 28.2381 3.26453 28.2381ZM10.8907 28.8181V27.6581L10.8607 27.4681V25.5281C10.8607 25.0814 10.734 24.7381 10.4807 24.4981C10.234 24.2581 9.86404 24.1381 9.3707 24.1381C9.0307 24.1381 8.70737 24.1948 8.4007 24.3081C8.09404 24.4214 7.83404 24.5714 7.6207 24.7581L7.3007 24.2281C7.56737 24.0014 7.88737 23.8281 8.2607 23.7081C8.63404 23.5814 9.02737 23.5181 9.4407 23.5181C10.1207 23.5181 10.644 23.6881 11.0107 24.0281C11.384 24.3614 11.5707 24.8714 11.5707 25.5581V28.8181H10.8907ZM9.0807 28.8681C8.68737 28.8681 8.34404 28.8048 8.0507 28.6781C7.76404 28.5448 7.54404 28.3648 7.3907 28.1381C7.23737 27.9048 7.1607 27.6381 7.1607 27.3381C7.1607 27.0648 7.22404 26.8181 7.3507 26.5981C7.48404 26.3714 7.69737 26.1914 7.9907 26.0581C8.2907 25.9181 8.6907 25.8481 9.1907 25.8481H11.0007V26.3781H9.2107C8.70404 26.3781 8.3507 26.4681 8.1507 26.6481C7.95737 26.8281 7.8607 27.0514 7.8607 27.3181C7.8607 27.6181 7.97737 27.8581 8.2107 28.0381C8.44404 28.2181 8.7707 28.3081 9.1907 28.3081C9.5907 28.3081 9.93404 28.2181 10.2207 28.0381C10.514 27.8514 10.7274 27.5848 10.8607 27.2381L11.0207 27.7281C10.8874 28.0748 10.654 28.3514 10.3207 28.5581C9.99404 28.7648 9.5807 28.8681 9.0807 28.8681ZM14.9634 28.8781C14.5834 28.8781 14.2067 28.8248 13.8334 28.7181C13.46 28.6114 13.13 28.4481 12.8434 28.2281L13.0734 27.6981C13.3267 27.8848 13.62 28.0281 13.9534 28.1281C14.2867 28.2214 14.6167 28.2681 14.9434 28.2681C15.27 28.2614 15.5534 28.2148 15.7934 28.1281C16.0334 28.0414 16.22 27.9214 16.3534 27.7681C16.4867 27.6148 16.5534 27.4414 16.5534 27.2481C16.5534 26.9681 16.4267 26.7514 16.1734 26.5981C15.92 26.4381 15.5734 26.3581 15.1334 26.3581H14.2334V25.8381H15.0834C15.3434 25.8381 15.5734 25.8048 15.7734 25.7381C15.9734 25.6714 16.1267 25.5748 16.2334 25.4481C16.3467 25.3214 16.4034 25.1714 16.4034 24.9981C16.4034 24.8114 16.3367 24.6514 16.2034 24.5181C16.0767 24.3848 15.9 24.2848 15.6734 24.2181C15.4467 24.1514 15.19 24.1181 14.9034 24.1181C14.6434 24.1248 14.3734 24.1648 14.0934 24.2381C13.8134 24.3048 13.5367 24.4081 13.2634 24.5481L13.0634 23.9981C13.37 23.8381 13.6734 23.7181 13.9734 23.6381C14.28 23.5514 14.5867 23.5081 14.8934 23.5081C15.3134 23.4948 15.69 23.5448 16.0234 23.6581C16.3634 23.7714 16.6334 23.9348 16.8334 24.1481C17.0334 24.3548 17.1334 24.6048 17.1334 24.8981C17.1334 25.1581 17.0534 25.3848 16.8934 25.5781C16.7334 25.7714 16.52 25.9214 16.2534 26.0281C15.9867 26.1348 15.6834 26.1881 15.3434 26.1881L15.3734 25.9981C15.9734 25.9981 16.44 26.1148 16.7734 26.3481C17.1134 26.5814 17.2834 26.8981 17.2834 27.2981C17.2834 27.6114 17.18 27.8881 16.9734 28.1281C16.7667 28.3614 16.4867 28.5448 16.1334 28.6781C15.7867 28.8114 15.3967 28.8781 14.9634 28.8781ZM21.8052 28.8681C21.3518 28.8681 20.9418 28.7648 20.5752 28.5581C20.2085 28.3448 19.9152 28.0414 19.6952 27.6481C19.4818 27.2481 19.3752 26.7614 19.3752 26.1881C19.3752 25.6148 19.4818 25.1314 19.6952 24.7381C19.9085 24.3381 20.1985 24.0348 20.5652 23.8281C20.9318 23.6214 21.3452 23.5181 21.8052 23.5181C22.3052 23.5181 22.7518 23.6314 23.1452 23.8581C23.5452 24.0781 23.8585 24.3914 24.0852 24.7981C24.3118 25.1981 24.4252 25.6614 24.4252 26.1881C24.4252 26.7214 24.3118 27.1881 24.0852 27.5881C23.8585 27.9881 23.5452 28.3014 23.1452 28.5281C22.7518 28.7548 22.3052 28.8681 21.8052 28.8681ZM19.0952 30.7581V23.5681H19.7752V25.1481L19.7052 26.1981L19.8052 27.2581V30.7581H19.0952ZM21.7552 28.2381C22.1285 28.2381 22.4618 28.1548 22.7552 27.9881C23.0485 27.8148 23.2818 27.5748 23.4552 27.2681C23.6285 26.9548 23.7152 26.5948 23.7152 26.1881C23.7152 25.7814 23.6285 25.4248 23.4552 25.1181C23.2818 24.8114 23.0485 24.5714 22.7552 24.3981C22.4618 24.2248 22.1285 24.1381 21.7552 24.1381C21.3818 24.1381 21.0452 24.2248 20.7452 24.3981C20.4518 24.5714 20.2185 24.8114 20.0452 25.1181C19.8785 25.4248 19.7952 25.7814 19.7952 26.1881C19.7952 26.5948 19.8785 26.9548 20.0452 27.2681C20.2185 27.5748 20.4518 27.8148 20.7452 27.9881C21.0452 28.1548 21.3818 28.2381 21.7552 28.2381ZM29.3813 28.8181V27.6581L29.3513 27.4681V25.5281C29.3513 25.0814 29.2247 24.7381 28.9713 24.4981C28.7247 24.2581 28.3547 24.1381 27.8613 24.1381C27.5213 24.1381 27.198 24.1948 26.8913 24.3081C26.5847 24.4214 26.3247 24.5714 26.1113 24.7581L25.7913 24.2281C26.058 24.0014 26.378 23.8281 26.7513 23.7081C27.1247 23.5814 27.518 23.5181 27.9313 23.5181C28.6113 23.5181 29.1347 23.6881 29.5013 24.0281C29.8747 24.3614 30.0613 24.8714 30.0613 25.5581V28.8181H29.3813ZM27.5713 28.8681C27.178 28.8681 26.8347 28.8048 26.5413 28.6781C26.2547 28.5448 26.0347 28.3648 25.8813 28.1381C25.728 27.9048 25.6513 27.6381 25.6513 27.3381C25.6513 27.0648 25.7147 26.8181 25.8413 26.5981C25.9747 26.3714 26.188 26.1914 26.4813 26.0581C26.7813 25.9181 27.1813 25.8481 27.6813 25.8481H29.4913V26.3781H27.7013C27.1947 26.3781 26.8413 26.4681 26.6413 26.6481C26.448 26.8281 26.3513 27.0514 26.3513 27.3181C26.3513 27.6181 26.468 27.8581 26.7013 28.0381C26.9347 28.2181 27.2613 28.3081 27.6813 28.3081C28.0813 28.3081 28.4247 28.2181 28.7113 28.0381C29.0047 27.8514 29.218 27.5848 29.3513 27.2381L29.5113 27.7281C29.378 28.0748 29.1447 28.3514 28.8113 28.5581C28.4847 28.7648 28.0713 28.8681 27.5713 28.8681ZM34.5114 28.8781C34.0847 28.8781 33.7047 28.8081 33.3714 28.6681C33.0447 28.5281 32.7647 28.3148 32.5314 28.0281C32.2981 27.7414 32.1214 27.3881 32.0014 26.9681C31.8814 26.5414 31.8214 26.0481 31.8214 25.4881C31.8214 24.9881 31.8681 24.5514 31.9614 24.1781C32.0547 23.7981 32.1847 23.4714 32.3514 23.1981C32.5181 22.9248 32.7114 22.6948 32.9314 22.5081C33.1581 22.3148 33.4014 22.1614 33.6614 22.0481C33.9281 21.9281 34.2014 21.8381 34.4814 21.7781L36.8414 21.2281L36.9614 21.8881L34.7414 22.3881C34.6014 22.4214 34.4314 22.4681 34.2314 22.5281C34.0381 22.5881 33.8381 22.6781 33.6314 22.7981C33.4314 22.9181 33.2447 23.0848 33.0714 23.2981C32.8981 23.5114 32.7581 23.7881 32.6514 24.1281C32.5514 24.4614 32.5014 24.8781 32.5014 25.3781C32.5014 25.4848 32.5047 25.5714 32.5114 25.6381C32.5181 25.6981 32.5247 25.7648 32.5314 25.8381C32.5447 25.9048 32.5547 26.0048 32.5614 26.1381L32.2514 25.8781C32.3247 25.4714 32.4747 25.1181 32.7014 24.8181C32.9281 24.5114 33.2114 24.2748 33.5514 24.1081C33.8981 23.9348 34.2814 23.8481 34.7014 23.8481C35.1881 23.8481 35.6214 23.9548 36.0014 24.1681C36.3814 24.3748 36.6781 24.6648 36.8914 25.0381C37.1114 25.4114 37.2214 25.8448 37.2214 26.3381C37.2214 26.8248 37.1081 27.2614 36.8814 27.6481C36.6614 28.0348 36.3481 28.3381 35.9414 28.5581C35.5347 28.7714 35.0581 28.8781 34.5114 28.8781ZM34.5914 28.2881C34.9647 28.2881 35.2947 28.2048 35.5814 28.0381C35.8681 27.8648 36.0914 27.6314 36.2514 27.3381C36.4181 27.0448 36.5014 26.7148 36.5014 26.3481C36.5014 25.9881 36.4181 25.6681 36.2514 25.3881C36.0914 25.1081 35.8681 24.8881 35.5814 24.7281C35.2947 24.5614 34.9614 24.4781 34.5814 24.4781C34.2081 24.4781 33.8781 24.5581 33.5914 24.7181C33.3047 24.8714 33.0781 25.0881 32.9114 25.3681C32.7514 25.6481 32.6714 25.9714 32.6714 26.3381C32.6714 26.7048 32.7514 27.0348 32.9114 27.3281C33.0781 27.6214 33.3047 27.8548 33.5914 28.0281C33.8847 28.2014 34.2181 28.2881 34.5914 28.2881ZM41.1032 28.8681C40.5965 28.8681 40.1399 28.7548 39.7332 28.5281C39.3332 28.2948 39.0165 27.9781 38.7832 27.5781C38.5499 27.1714 38.4332 26.7081 38.4332 26.1881C38.4332 25.6614 38.5499 25.1981 38.7832 24.7981C39.0165 24.3981 39.3332 24.0848 39.7332 23.8581C40.1332 23.6314 40.5899 23.5181 41.1032 23.5181C41.6232 23.5181 42.0832 23.6314 42.4832 23.8581C42.8899 24.0848 43.2065 24.3981 43.4332 24.7981C43.6665 25.1981 43.7832 25.6614 43.7832 26.1881C43.7832 26.7081 43.6665 27.1714 43.4332 27.5781C43.2065 27.9781 42.8899 28.2948 42.4832 28.5281C42.0765 28.7548 41.6165 28.8681 41.1032 28.8681ZM41.1032 28.2381C41.4832 28.2381 41.8199 28.1548 42.1132 27.9881C42.4065 27.8148 42.6365 27.5748 42.8032 27.2681C42.9765 26.9548 43.0632 26.5948 43.0632 26.1881C43.0632 25.7748 42.9765 25.4148 42.8032 25.1081C42.6365 24.8014 42.4065 24.5648 42.1132 24.3981C41.8199 24.2248 41.4865 24.1381 41.1132 24.1381C40.7399 24.1381 40.4065 24.2248 40.1132 24.3981C39.8199 24.5648 39.5865 24.8014 39.4132 25.1081C39.2399 25.4148 39.1532 25.7748 39.1532 26.1881C39.1532 26.5948 39.2399 26.9548 39.4132 27.2681C39.5865 27.5748 39.8199 27.8148 40.1132 27.9881C40.4065 28.1548 40.7365 28.2381 41.1032 28.2381ZM46.3053 28.8181V23.9981L46.4853 24.1881H44.3153V23.5681H49.0053V24.1881H46.8353L47.0153 23.9981V28.8181H46.3053ZM53.4919 28.8181V27.6581L53.4619 27.4681V25.5281C53.4619 25.0814 53.3352 24.7381 53.0819 24.4981C52.8352 24.2581 52.4652 24.1381 51.9719 24.1381C51.6319 24.1381 51.3085 24.1948 51.0019 24.3081C50.6952 24.4214 50.4352 24.5714 50.2219 24.7581L49.9019 24.2281C50.1685 24.0014 50.4885 23.8281 50.8619 23.7081C51.2352 23.5814 51.6285 23.5181 52.0419 23.5181C52.7219 23.5181 53.2452 23.6881 53.6119 24.0281C53.9852 24.3614 54.1719 24.8714 54.1719 25.5581V28.8181H53.4919ZM51.6819 28.8681C51.2885 28.8681 50.9452 28.8048 50.6519 28.6781C50.3652 28.5448 50.1452 28.3648 49.9919 28.1381C49.8385 27.9048 49.7619 27.6381 49.7619 27.3381C49.7619 27.0648 49.8252 26.8181 49.9519 26.5981C50.0852 26.3714 50.2985 26.1914 50.5919 26.0581C50.8919 25.9181 51.2919 25.8481 51.7919 25.8481H53.6019V26.3781H51.8119C51.3052 26.3781 50.9519 26.4681 50.7519 26.6481C50.5585 26.8281 50.4619 27.0514 50.4619 27.3181C50.4619 27.6181 50.5785 27.8581 50.8119 28.0381C51.0452 28.2181 51.3719 28.3081 51.7919 28.3081C52.1919 28.3081 52.5352 28.2181 52.8219 28.0381C53.1152 27.8514 53.3285 27.5848 53.4619 27.2381L53.6219 27.7281C53.4885 28.0748 53.2552 28.3514 52.9219 28.5581C52.5952 28.7648 52.1819 28.8681 51.6819 28.8681ZM56.262 28.8181V23.5681H56.972V25.8881H60.282V23.5681H60.992V28.8181H60.282V26.4981H56.972V28.8181H56.262ZM17.0104 41.8181V36.5681H19.3304C19.9237 36.5681 20.3904 36.6814 20.7304 36.9081C21.0771 37.1348 21.2504 37.4681 21.2504 37.9081C21.2504 38.3348 21.0871 38.6648 20.7604 38.8981C20.4337 39.1248 20.0037 39.2381 19.4704 39.2381L19.6104 39.0281C20.2371 39.0281 20.6971 39.1448 20.9904 39.3781C21.2837 39.6114 21.4304 39.9481 21.4304 40.3881C21.4304 40.8414 21.2637 41.1948 20.9304 41.4481C20.6037 41.6948 20.0937 41.8181 19.4004 41.8181H17.0104ZM17.7004 41.2581H19.3704C19.8171 41.2581 20.1537 41.1881 20.3804 41.0481C20.6137 40.9014 20.7304 40.6681 20.7304 40.3481C20.7304 40.0281 20.6271 39.7948 20.4204 39.6481C20.2137 39.5014 19.8871 39.4281 19.4404 39.4281H17.7004V41.2581ZM17.7004 38.8981H19.2804C19.6871 38.8981 19.9971 38.8214 20.2104 38.6681C20.4304 38.5148 20.5404 38.2914 20.5404 37.9981C20.5404 37.7048 20.4304 37.4848 20.2104 37.3381C19.9971 37.1914 19.6871 37.1181 19.2804 37.1181H17.7004V38.8981ZM28.3116 41.8681C27.7916 41.8681 27.3249 41.7548 26.9116 41.5281C26.5049 41.2948 26.1849 40.9781 25.9516 40.5781C25.7182 40.1714 25.6016 39.7081 25.6016 39.1881C25.6016 38.6614 25.7182 38.1981 25.9516 37.7981C26.1849 37.3981 26.5049 37.0848 26.9116 36.8581C27.3249 36.6314 27.7916 36.5181 28.3116 36.5181C28.7582 36.5181 29.1616 36.6048 29.5216 36.7781C29.8816 36.9514 30.1649 37.2114 30.3716 37.5581L29.8416 37.9181C29.6616 37.6514 29.4382 37.4548 29.1716 37.3281C28.9049 37.2014 28.6149 37.1381 28.3016 37.1381C27.9282 37.1381 27.5916 37.2248 27.2916 37.3981C26.9916 37.5648 26.7549 37.8014 26.5816 38.1081C26.4082 38.4148 26.3216 38.7748 26.3216 39.1881C26.3216 39.6014 26.4082 39.9614 26.5816 40.2681C26.7549 40.5748 26.9916 40.8148 27.2916 40.9881C27.5916 41.1548 27.9282 41.2381 28.3016 41.2381C28.6149 41.2381 28.9049 41.1748 29.1716 41.0481C29.4382 40.9214 29.6616 40.7281 29.8416 40.4681L30.3716 40.8281C30.1649 41.1681 29.8816 41.4281 29.5216 41.6081C29.1616 41.7814 28.7582 41.8681 28.3116 41.8681ZM32.8487 41.8181V36.9981L33.0287 37.1881H30.8587V36.5681H35.5487V37.1881H33.3787L33.5587 36.9981V41.8181H32.8487ZM36.8652 43.8081C36.6186 43.8081 36.3819 43.7681 36.1552 43.6881C35.9352 43.6081 35.7452 43.4881 35.5852 43.3281L35.9152 42.7981C36.0486 42.9248 36.1919 43.0214 36.3452 43.0881C36.5052 43.1614 36.6819 43.1981 36.8752 43.1981C37.1086 43.1981 37.3086 43.1314 37.4752 42.9981C37.6486 42.8714 37.8119 42.6448 37.9652 42.3181L38.3052 41.5481L38.3852 41.4381L40.5452 36.5681H41.2452L38.6152 42.4481C38.4686 42.7881 38.3052 43.0581 38.1252 43.2581C37.9519 43.4581 37.7619 43.5981 37.5552 43.6781C37.3486 43.7648 37.1186 43.8081 36.8652 43.8081ZM38.2652 41.9681L35.8452 36.5681H36.5852L38.7252 41.3881L38.2652 41.9681ZM45.9268 41.4781V37.1881H43.3968L43.3368 38.3581C43.3235 38.7114 43.3001 39.0581 43.2668 39.3981C43.2401 39.7381 43.1901 40.0514 43.1168 40.3381C43.0501 40.6181 42.9535 40.8481 42.8268 41.0281C42.7001 41.2014 42.5368 41.3014 42.3368 41.3281L41.6268 41.1981C41.8335 41.2048 42.0035 41.1314 42.1368 40.9781C42.2701 40.8181 42.3735 40.6014 42.4468 40.3281C42.5201 40.0548 42.5735 39.7448 42.6068 39.3981C42.6401 39.0448 42.6668 38.6848 42.6868 38.3181L42.7568 36.5681H46.6368V41.4781H45.9268ZM41.4068 43.0881V41.1981H47.4568V43.0881H46.7868V41.8181H42.0768V43.0881H41.4068ZM49.0405 41.8181V36.5681H49.7505V40.7381L53.2605 36.5681H53.8905V41.8181H53.1805V37.6381L49.6805 41.8181H49.0405ZM56.1252 41.8181V36.5681H56.8352V40.7381L60.3452 36.5681H60.9752V41.8181H60.2652V37.6381L56.7652 41.8181H56.1252Z"
			fill="#2B2B2B" />
			<defs>
			<clipPath id="clip0_401_1561">
			<rect width="73" height="44" fill="white" transform="translate(69 0.818115)" />
			</clipPath>
			</defs>
			</svg>