<svg width="183" height="26" viewBox="0 0 183 26" fill="none" xmlns="http://www.w3.org/2000/svg">
<path d="M173.578 1.09491C176.586 1.09491 178.908 1.74711 180.545 3.05194C182.181 4.35676 183 6.19244 183 8.55878C183 10.505 182.535 12.2085 181.606 13.6682C180.678 15.1277 179.351 16.2558 177.626 17.0519C175.901 17.8481 173.866 18.2463 171.521 18.2463H166.893L165.683 24.3166H159.114L159.312 23.3244C160.502 17.3757 165.717 13.0896 171.779 13.0705C172.458 13.5415 173.281 13.8184 174.17 13.8185C176.489 13.8185 178.37 11.9385 178.37 9.61932C178.37 7.30012 176.489 5.4201 174.17 5.4201C173.219 5.42021 172.343 5.73688 171.639 6.26971H168.001C165.271 6.2695 163.223 3.77207 163.759 1.09491H173.578Z" fill="#E52F24"/>
<path d="M145.752 10.085H156.533L155.571 14.9948H144.79L145.752 10.085ZM144.391 19.2412H156.567C155.948 22.1984 153.341 24.3168 150.319 24.3168H136.894L141.538 1.09473H159.718C159.12 4.04774 156.524 6.17042 153.511 6.17042H146.979L144.391 19.2412Z" fill="black"/>
<path d="M111.159 24.7813C110.628 24.7813 110.12 24.7481 109.633 24.6818C109.169 24.6154 108.704 24.5159 108.24 24.3832L109.666 19.0089C109.932 19.0753 110.219 19.1085 110.529 19.1085C111.303 19.1085 111.966 18.832 112.519 18.2791C113.094 17.7262 113.636 16.8084 114.145 15.5256C114.653 14.2429 115.151 12.5178 115.638 10.3504L116.917 4.9437C117.45 2.68794 119.464 1.09473 121.782 1.09473H130.439C133.594 1.09473 135.96 3.98135 135.341 7.07531L131.893 24.3168H125.424L129.306 4.84344L130.467 6.30312H121.078L122.704 4.77709L121.211 11.3788C120.636 13.9222 120.028 16.0453 119.386 17.7483C118.767 19.4513 118.07 20.8225 117.296 21.8619C116.522 22.9014 115.638 23.6534 114.642 24.1178C113.647 24.5601 112.486 24.7813 111.159 24.7813Z" fill="black"/>
<path d="M84.5937 24.7813C84.0629 24.7813 83.5542 24.7481 83.0676 24.6818C82.6032 24.6154 82.1388 24.5159 81.6743 24.3832L83.1008 19.0089C83.3662 19.0753 83.6537 19.1085 83.9634 19.1085C84.7374 19.1085 85.4009 18.832 85.9538 18.2791C86.5288 17.7262 87.0707 16.8084 87.5794 15.5256C88.088 14.2429 88.5857 12.5178 89.0722 10.3504L90.3512 4.9437C90.8848 2.68794 92.8989 1.09473 95.2169 1.09473H103.873C107.028 1.09473 109.395 3.98135 108.776 7.07531L105.328 24.3168H98.8587L102.74 4.84344L103.901 6.30312H94.5128L96.1384 4.77709L94.6455 11.3788C94.0705 13.9222 93.4623 16.0453 92.8209 17.7483C92.2017 19.4513 91.505 20.8225 90.7309 21.8619C89.9569 22.9014 89.0722 23.6534 88.077 24.1178C87.0818 24.5601 85.9207 24.7813 84.5937 24.7813Z" fill="black"/>
<path d="M68.6966 24.7813C66.308 24.7813 64.2512 24.35 62.5261 23.4875C60.801 22.6029 59.4741 21.3975 58.5452 19.8715C57.6163 18.3455 57.1519 16.5762 57.1519 14.5636C57.1519 12.5289 57.5057 10.6711 58.2134 8.99027C58.9212 7.28732 59.9164 5.81658 61.1991 4.57807C62.4819 3.31744 64.0079 2.34432 65.7772 1.65872C67.5686 0.973113 69.5259 0.63031 71.6491 0.63031C74.0377 0.63031 76.0945 1.07264 77.8195 1.95729C79.5446 2.81982 80.8716 4.0141 81.8005 5.54013C82.7294 7.06616 83.1938 8.83546 83.1938 10.848C83.1938 12.8827 82.8399 14.7516 82.1322 16.4545C81.4245 18.1354 80.4293 19.6061 79.1465 20.8667C77.8638 22.1052 76.3267 23.0673 74.5353 23.7529C72.766 24.4385 70.8197 24.7813 68.6966 24.7813ZM69.2605 19.3407C70.4106 19.3407 71.4279 19.1306 72.3126 18.7104C73.2193 18.2902 73.9824 17.7041 74.6016 16.9521C75.243 16.1781 75.7295 15.3045 76.0613 14.3314C76.393 13.3582 76.5589 12.3298 76.5589 11.2461C76.5589 10.2067 76.3377 9.2999 75.8954 8.52583C75.4752 7.75176 74.856 7.15462 74.0377 6.73441C73.2415 6.29208 72.2573 6.07092 71.0851 6.07092C69.9572 6.07092 68.9398 6.28103 68.0331 6.70124C67.1263 7.12145 66.3522 7.71859 65.7109 8.49266C65.0916 9.24461 64.6161 10.1071 64.2844 11.0803C63.9526 12.0534 63.7867 13.0818 63.7867 14.1655C63.7867 15.1828 63.9968 16.0896 64.4171 16.8858C64.8594 17.6599 65.4786 18.2681 66.2748 18.7104C67.0931 19.1306 68.0884 19.3407 69.2605 19.3407Z" fill="black"/>
<path d="M31.604 24.3168L36.2484 1.09473H55.6555C55.0572 4.04774 52.4613 6.17042 49.4482 6.17042H41.689L40.926 9.91913H46.9638C49.3523 9.91913 51.188 10.461 52.4707 11.5447C53.7756 12.6063 54.428 14.1433 54.428 16.1559C54.428 17.8368 53.9746 19.2854 53.0679 20.5018C52.1611 21.7182 50.8673 22.6581 49.1865 23.3216C47.5277 23.9851 45.5262 24.3168 43.1819 24.3168H31.604ZM39.0019 19.6061H43.7127C44.9512 19.6061 45.9243 19.3407 46.632 18.8099C47.3398 18.2791 47.6936 17.5714 47.6936 16.6867C47.6936 15.979 47.4503 15.4593 46.9638 15.1275C46.4772 14.7737 45.7253 14.5967 44.7079 14.5967H39.9971L39.0019 19.6061Z" fill="black"/>
<path d="M12.8717 22.9236C8.71382 22.9236 5.52908 22.1827 3.31745 20.7009C1.10581 19.2191 0 17.0627 0 14.2318C0 11.8433 0.630315 9.75329 1.89094 7.96187C3.17369 6.17045 5.03146 4.78818 7.46425 3.81506C9.89705 2.81983 12.8385 2.32221 16.2887 2.32221H18.0137C22.0831 2.32221 25.1905 3.07417 27.3358 4.57808C29.5032 6.08198 30.5868 8.26044 30.5868 11.1134C30.5868 13.5462 29.9455 15.6473 28.6627 17.4166C27.38 19.1859 25.5443 20.5461 23.1558 21.4971C20.7893 22.4481 17.9695 22.9236 14.6963 22.9236H12.8717ZM14.0991 17.881H14.7295C16.8747 17.881 18.644 17.6599 20.0374 17.2175C21.4307 16.7752 22.4591 16.1228 23.1226 15.2603C23.7861 14.3756 24.1178 13.2808 24.1178 11.976C24.1178 10.3394 23.5539 9.16721 22.4259 8.45949C21.298 7.75176 19.4623 7.3979 16.919 7.3979H16.2223C13.9443 7.3979 12.0866 7.61907 10.649 8.06139C9.21144 8.50372 8.14986 9.15615 7.46425 10.0187C6.80076 10.8812 6.46902 11.987 6.46902 13.3361C6.46902 14.9727 7.06616 16.1449 8.26044 16.8526C9.45472 17.5382 11.401 17.881 14.0991 17.881ZM9.72012 25.4116L14.3203 2.38055C14.5968 0.996442 15.8119 0 17.2234 0C19.0912 0 20.4923 1.70859 20.1264 3.54025L15.7579 25.4116H9.72012Z" fill="black"/>
<mask id="mask0_3395_112" style="mask-type:alpha" maskUnits="userSpaceOnUse" x="169" y="5" width="10" height="9">
<circle cx="174.17" cy="9.61934" r="4.1993" fill="#D9D9D9"/>
</mask>
<g mask="url(#mask0_3395_112)">
<path d="M174.099 7.76339L172.172 9.16596L172.906 11.4336H175.292L176.031 9.16596L174.099 7.76339Z" fill="black"/>
<path d="M176.837 8.87198L178.613 10.4635L180.679 9.26672L180.176 6.93191L177.803 6.68835L176.837 8.87198Z" fill="black"/>
<path d="M171.449 8.872L170.017 10.1528C169.992 9.96912 169.979 9.7839 169.98 9.59848C169.977 8.75247 170.236 7.92639 170.723 7.23428L171.449 8.872Z" fill="black"/>
<path d="M175.724 11.9207L174.926 14.1715L179.08 15.6245L178.786 14.2723L178.11 11.9879L175.724 11.9207Z" fill="black"/>
<path d="M172.491 11.9837L170.114 12.1643L169.551 14.4823L173.843 15.7337L173.398 14.1883L172.491 11.9837Z" fill="black"/>
<path d="M174.099 6.81435L176.031 5.41179L175.292 3.14417H172.906L172.172 5.41179L174.099 6.81435Z" fill="black"/>
</g>
</svg>
