<svg xmlns="http://www.w3.org/2000/svg" width="184" height="27" viewBox="0 0 184 27" fill="none">
  <path d="M11.35 6.64551L10.16 12.3255H21.5699L21.02 15.0355C20.8488 15.8572 20.4005 16.595 19.75 17.1255C19.0995 17.6548 18.2885 17.9475 17.45 17.9555H9.07996L7.31 26.8055H0L5.15997 1.00549H25.3799L24.8199 3.72549C24.6464 4.549 24.1987 5.28932 23.55 5.8255C22.8971 6.35622 22.0814 6.64581 21.24 6.64551H11.35Z" fill="white"/>
  <path d="M46.2899 13.5155C47.6312 12.9804 48.8026 12.0924 49.6799 10.9455C50.5038 9.81846 50.9326 8.45109 50.8999 7.05547C50.9389 6.17231 50.7495 5.29401 50.3499 4.50545C49.9501 3.72001 49.3499 3.0542 48.6099 2.57546C46.5866 1.40532 44.2627 0.859118 41.9299 1.00545H28.9299L28.6199 2.53545C28.5198 2.98662 28.5198 3.45427 28.6199 3.90544C28.7878 4.57644 29.1732 5.17295 29.716 5.60173C30.2588 6.03051 30.9283 6.26743 31.6199 6.27547H40.1599C42.1599 6.27547 43.2199 6.95547 43.2199 8.27547C43.248 8.69404 43.1725 9.11309 42.9999 9.49547C42.8276 9.88595 42.5634 10.229 42.2299 10.4955C41.3343 11.0562 40.284 11.3188 39.2299 11.2455H31.5799C30.2204 11.2484 28.9037 11.7208 27.8524 12.5826C26.801 13.4445 26.0795 14.643 25.8099 15.9754L23.6399 26.8154H37.8499C40.8429 26.9493 43.8121 26.2278 46.4099 24.7355C47.4567 24.1074 48.3143 23.2079 48.8917 22.1323C49.4691 21.0567 49.7449 19.845 49.6899 18.6254C49.7089 17.5284 49.3874 16.4524 48.7699 15.5455C48.1194 14.6575 47.2373 13.9656 46.2199 13.5455L46.2899 13.5155ZM41.3799 20.7755C40.4641 21.3433 39.3958 21.6157 38.3199 21.5555H31.9699L32.7799 17.4755C32.8415 17.1501 33.0148 16.8565 33.2699 16.6455C33.5225 16.4423 33.8358 16.3297 34.1599 16.3255H39.4399C40.2157 16.2828 40.9871 16.4669 41.6599 16.8555C41.9248 17.0384 42.1383 17.2863 42.2799 17.5755C42.423 17.8637 42.4885 18.1842 42.4699 18.5054C42.494 18.9473 42.4045 19.388 42.2099 19.7854C42.0211 20.1888 41.7276 20.5341 41.3599 20.7854L41.3799 20.7755Z" fill="white"/>
  <path d="M70.68 21.8155H59.68L56.68 26.8155H48.96L65.35 1.3255C65.409 1.22961 65.4917 1.15042 65.59 1.09549C65.689 1.04442 65.7986 1.01705 65.91 1.0155H72.21C72.3613 1.01621 72.5084 1.06525 72.6299 1.15549C72.7452 1.25198 72.8289 1.38091 72.87 1.52551L78.97 26.8355H71.71L70.68 21.8155ZM69.58 16.4255L67.84 8.05551L62.89 16.4255H69.58Z" fill="white"/>
  <path d="M86.7901 1.00545H92.7901C92.8899 1.00514 92.9886 1.02557 93.0801 1.06545C93.1706 1.10773 93.2502 1.17033 93.3127 1.24837C93.3751 1.32642 93.4188 1.41783 93.4401 1.51546C93.4651 1.61051 93.4651 1.71042 93.4401 1.80547L89.6201 21.0555H101.94L100.76 26.8454H81.0801L86.0801 1.56545C86.1072 1.40636 86.1885 1.26151 86.3101 1.15545C86.4333 1.05292 86.59 0.999504 86.7501 1.00545H86.7901Z" fill="white"/>
  <path d="M109.3 1.00545H115.24C115.337 1.00504 115.432 1.0255 115.52 1.06545C115.613 1.10513 115.696 1.16679 115.76 1.24513C115.825 1.32348 115.869 1.41621 115.89 1.51546C115.91 1.6111 115.91 1.70983 115.89 1.80547L112.07 21.0555H124.39L123.21 26.8454H103.58L108.58 1.56545C108.611 1.40556 108.696 1.26102 108.82 1.15544C108.945 1.05605 109.1 1.00305 109.26 1.00545H109.3Z" fill="white"/>
  <path d="M137.31 6.64551L136.46 11.0055H147.92L146.85 16.4655H135.35L134.43 21.1855H147.97L147.39 23.9355C147.22 24.7489 146.775 25.4791 146.131 26.0036C145.486 26.528 144.681 26.8147 143.85 26.8155H126.09L131.26 1.00549H151.47L151.01 3.34549C150.822 4.27053 150.322 5.10304 149.594 5.70374C148.866 6.30443 147.954 6.63689 147.01 6.64551H137.31Z" fill="white"/>
  <path d="M176.36 8.79547L178.55 10.7955L181.08 9.32547L180.47 6.45547L177.55 6.15546L176.36 8.79547Z" fill="#E52F24"/>
  <path d="M175 12.5355L174 15.3055L179.1 17.0855L178.74 15.4255L177.91 12.6255L175 12.5355Z" fill="#E52F24"/>
  <path d="M171.03 12.6155L168.11 12.8355L167.42 15.6855L172.69 17.2255L172.16 15.3255L171.03 12.6155Z" fill="#E52F24"/>
  <path d="M173 6.26544L175.37 4.54544L174.47 1.76544H171.54L170.64 4.54544L173 6.26544Z" fill="#E52F24"/>
  <path d="M173 7.43536L170.64 9.15536L171.54 11.9454H174.47L175.37 9.15536L173 7.43536Z" fill="#E52F24"/>
  <path d="M169.75 8.79547L167.99 10.3255C167.814 9.0649 168.125 7.78458 168.86 6.74548L169.75 8.79547Z" fill="#E52F24"/>
  <path d="M181.27 15.1755C180.288 16.3916 178.996 17.3207 177.53 17.8655C176.697 18.1681 175.817 18.3238 174.93 18.3255L169.85 18.3755L179.7 26.8355H170.16L159.7 18.3755L158.02 26.8355H151.24C151.24 26.8355 151.73 24.6355 152.52 20.5355C153.22 16.8755 156.78 11.6955 164.52 11.5955H168.28C168.723 12.694 169.533 13.6043 170.574 14.1703C171.614 14.7363 172.819 14.9226 173.981 14.6973C175.144 14.472 176.192 13.8492 176.945 12.9356C177.699 12.022 178.111 10.8747 178.111 9.69046C178.111 8.50622 177.699 7.35891 176.945 6.44534C176.192 5.53177 175.144 4.90888 173.981 4.68359C172.819 4.4583 171.614 4.64465 170.574 5.21063C169.533 5.77661 168.723 6.68694 168.28 7.78546H166.76C159.89 7.68546 157.28 4.43548 156.31 0.995483H174.78C176.95 1.06872 179.014 1.94872 180.57 3.46338C182.125 4.97804 183.06 7.01838 183.19 9.18546C183.321 11.3518 182.636 13.4886 181.27 15.1755Z" fill="white"/>
</svg>