<svg width="184" height="27" viewBox="0 0 184 27" fill="none" xmlns="http://www.w3.org/2000/svg">
<path d="M11.35 5.85974L10.16 11.5397H21.5699L21.02 14.2497C20.8488 15.0714 20.4005 15.8093 19.75 16.3397C19.0995 16.869 18.2885 17.1617 17.45 17.1697H9.07996L7.31 26.0197H0L5.15997 0.219727H25.3799L24.8199 2.93973C24.6464 3.76324 24.1987 4.50355 23.55 5.03973C22.8971 5.57045 22.0814 5.86004 21.24 5.85974H11.35Z" fill="#E52F24"/>
<path d="M46.29 12.7297C47.6312 12.1947 48.8026 11.3066 49.68 10.1597C50.5038 9.0327 50.9327 7.66532 50.9 6.2697C50.939 5.38655 50.7495 4.50824 50.35 3.71968C49.9502 2.93424 49.3499 2.26843 48.61 1.78969C46.5867 0.619558 44.2627 0.0733515 41.93 0.219682H28.93L28.62 1.74968C28.5198 2.20085 28.5198 2.6685 28.62 3.11968C28.7879 3.79068 29.1733 4.38719 29.7161 4.81597C30.2588 5.24474 30.9284 5.48166 31.62 5.4897H40.16C42.16 5.4897 43.22 6.1697 43.22 7.4897C43.2481 7.90827 43.1726 8.32732 43 8.7097C42.8276 9.10018 42.5634 9.44325 42.23 9.7097C41.3344 10.2704 40.2841 10.533 39.23 10.4597H31.58C30.2205 10.4627 28.9038 10.935 27.8524 11.7969C26.8011 12.6587 26.0796 13.8572 25.81 15.1897L23.64 26.0297H37.85C40.843 26.1635 43.8121 25.4421 46.41 23.9497C47.4568 23.3216 48.3143 22.4221 48.8917 21.3465C49.4691 20.2709 49.745 19.0592 49.69 17.8397C49.7089 16.7426 49.3875 15.6666 48.77 14.7597C48.1195 13.8717 47.2373 13.1798 46.22 12.7597L46.29 12.7297ZM41.3799 19.9897C40.4642 20.5576 39.3958 20.8299 38.3199 20.7697H31.97L32.78 16.6897C32.8415 16.3644 33.0149 16.0708 33.27 15.8597C33.5225 15.6566 33.8359 15.5439 34.16 15.5397H39.44C40.2158 15.497 40.9872 15.6812 41.66 16.0697C41.9249 16.2526 42.1384 16.5006 42.28 16.7897C42.4231 17.0779 42.4886 17.3984 42.47 17.7197C42.4941 18.1616 42.4046 18.6022 42.21 18.9997C42.0212 19.403 41.7276 19.7484 41.36 19.9997L41.3799 19.9897Z" fill="#E52F24"/>
<path d="M70.68 21.0297H59.68L56.68 26.0297H48.96L65.35 0.539734C65.409 0.443847 65.4917 0.364658 65.59 0.309723C65.689 0.258653 65.7986 0.231281 65.91 0.229736H72.21C72.3613 0.230446 72.5084 0.279483 72.6299 0.36972C72.7452 0.466214 72.8289 0.595147 72.87 0.739746L78.97 26.0497H71.71L70.68 21.0297ZM69.58 15.6397L67.84 7.26974L62.89 15.6397H69.58Z" fill="#E52F24"/>
<path d="M86.79 0.219687H92.79C92.8898 0.219376 92.9885 0.239806 93.08 0.279684C93.1705 0.321965 93.2501 0.38456 93.3126 0.462607C93.375 0.540653 93.4186 0.63206 93.44 0.729697C93.465 0.824747 93.465 0.924655 93.44 1.01971L89.62 20.2697H101.94L100.76 26.0597H81.08L86.08 0.779684C86.1071 0.62059 86.1884 0.475747 86.31 0.369681C86.4332 0.267151 86.5899 0.213738 86.75 0.219687H86.79Z" fill="#E52F24"/>
<path d="M109.3 0.219682H115.24C115.337 0.21927 115.432 0.239735 115.52 0.27968C115.613 0.319364 115.696 0.381022 115.76 0.459368C115.825 0.537713 115.869 0.63044 115.89 0.729692C115.91 0.825329 115.91 0.924064 115.89 1.0197L112.07 20.2697H124.39L123.21 26.0597H103.58L108.58 0.77968C108.611 0.619796 108.696 0.475253 108.82 0.369676C108.945 0.270288 109.1 0.217284 109.26 0.219682H109.3Z" fill="#E52F24"/>
<path d="M137.31 5.85974L136.46 10.2197H147.92L146.85 15.6797H135.35L134.43 20.3997H147.97L147.39 23.1497C147.22 23.9632 146.776 24.6934 146.131 25.2178C145.486 25.7422 144.681 26.0289 143.85 26.0297H126.09L131.26 0.219727H151.47L151.01 2.55972C150.822 3.48476 150.322 4.31728 149.594 4.91797C148.866 5.51866 147.954 5.85112 147.01 5.85974H137.31Z" fill="#E52F24"/>
<path d="M176.36 8.00977L178.55 10.0098L181.08 8.53976L180.47 5.66977L177.55 5.36975L176.36 8.00977Z" fill="black"/>
<path d="M175 11.7498L174 14.5198L179.1 16.2998L178.74 14.6398L177.91 11.8398L175 11.7498Z" fill="black"/>
<path d="M171.03 11.8297L168.11 12.0497L167.42 14.8997L172.69 16.4397L172.16 14.5397L171.03 11.8297Z" fill="black"/>
<path d="M173 5.47974L175.37 3.75974L174.47 0.979736H171.54L170.64 3.75974L173 5.47974Z" fill="black"/>
<path d="M173 6.64966L170.64 8.36966L171.54 11.1597H174.47L175.37 8.36966L173 6.64966Z" fill="black"/>
<path d="M169.75 8.0097L167.99 9.5397C167.814 8.27913 168.125 6.99881 168.86 5.95972L169.75 8.0097Z" fill="black"/>
<path d="M181.27 14.3897C180.288 15.6058 178.996 16.535 177.53 17.0797C176.697 17.3824 175.817 17.538 174.93 17.5397L169.85 17.5897L179.7 26.0497H170.16L159.7 17.5897L158.02 26.0497H151.24C151.24 26.0497 151.73 23.8497 152.52 19.7497C153.22 16.0897 156.78 10.9097 164.52 10.8097H168.28C168.723 11.9082 169.533 12.8186 170.574 13.3846C171.614 13.9505 172.819 14.1368 173.981 13.9116C175.144 13.6863 176.192 13.0634 176.945 12.1498C177.699 11.2363 178.111 10.0889 178.111 8.90469C178.111 7.72045 177.699 6.57315 176.945 5.65958C176.192 4.74601 175.144 4.12312 173.981 3.89783C172.819 3.67254 171.614 3.85889 170.574 4.42487C169.533 4.99084 168.723 5.90117 168.28 6.99969H166.76C159.89 6.89969 157.28 3.64972 156.31 0.209717H174.78C176.95 0.282958 179.014 1.16295 180.57 2.67761C182.125 4.19227 183.06 6.23262 183.19 8.39969C183.321 10.5661 182.636 12.7029 181.27 14.3897Z" fill="#E52F24"/>
</svg>
