<svg width="976" height="403" viewBox="0 0 976 403" fill="none" xmlns="http://www.w3.org/2000/svg">
<path d="M0 268.811L6.5857 236.524C8.57828 226.702 13.9057 217.871 21.6651 211.528C29.4245 205.185 39.1384 201.72 49.1605 201.72H253.638L240.194 268.811H0Z" fill="#E52F24"/>
<path d="M253.638 201.72L260.223 169.433C262.233 159.623 267.57 150.808 275.331 144.481C283.092 138.153 292.801 134.701 302.814 134.709H507.292L493.848 201.784L253.638 201.72Z" fill="#E52F24"/>
<path d="M478.754 268.811L472.168 301.099C470.169 310.921 464.838 319.75 457.076 326.092C449.315 332.435 439.6 335.9 429.577 335.902H225.1L238.56 268.811H478.754Z" fill="#E52F24"/>
<path d="M479.186 268.811L485.772 236.524C487.765 226.699 493.095 217.866 500.858 211.523C508.62 205.179 518.338 201.716 528.363 201.72H732.824L719.38 268.811H479.186Z" fill="#E52F24"/>
<path d="M732.824 201.72L739.426 169.433C741.427 159.621 746.759 150.804 754.518 144.475C762.278 138.146 771.988 134.696 782.001 134.709H986.478L973.019 201.784L732.824 201.72Z" fill="#E52F24"/>
<path d="M761.362 67.5546L754.777 99.8422C752.797 109.679 747.472 118.526 739.708 124.882C731.944 131.238 722.22 134.711 712.186 134.71H507.724L521.168 67.6187L761.362 67.5546Z" fill="#E52F24"/>
<path d="M1015 0.463623L1008.41 32.7512C1006.42 42.5732 1001.09 51.404 993.335 57.747C985.576 64.09 975.862 67.555 965.84 67.5545H761.362L774.886 0.463623H1015Z" fill="#E52F24"/>
<path d="M704.383 335.902L697.781 368.19C695.788 378.012 690.461 386.843 682.702 393.186C674.942 399.529 665.228 402.993 655.206 402.993H450.649L464.108 335.902H704.383Z" fill="#E52F24"/>
<path d="M957.94 268.811L951.354 301.099C949.361 310.923 944.032 319.756 936.269 326.1C928.506 332.443 918.788 335.906 908.764 335.902H704.382L717.826 268.811H957.94Z" fill="#E52F24"/>
</svg>
