<svg width="611" height="603" viewBox="0 0 611 603" fill="none" xmlns="http://www.w3.org/2000/svg">
<g style="mix-blend-mode:soft-light" opacity="0.7">
<path d="M-250.102 601.126H-11.4834V601.527L-17.915 633.687C-19.925 643.334 -25.1507 652.179 -33.1904 658.61C-40.8282 665.042 -50.8781 668.258 -60.9277 668.258H-265.541V668.66L-271.973 700.818C-273.983 710.466 -279.208 719.31 -287.248 725.742C-294.886 732.174 -304.936 735.39 -314.985 735.39H-520L-506.332 668.258H-265.942L-252.438 601.93H-491.057V601.527L-484.625 569.368C-482.615 559.721 -477.389 550.877 -469.35 544.445C-461.712 538.014 -451.662 534.798 -441.612 534.798H-236.598L-250.102 601.126ZM230.275 601.126H468.894V601.527L462.462 633.687C460.452 643.334 455.225 652.179 447.186 658.61C439.548 665.042 429.498 668.258 419.448 668.258H214.837V668.66L208.404 700.818C206.394 710.466 201.169 719.31 193.129 725.742C185.491 732.174 175.441 735.39 165.392 735.39H-39.6221L-25.9551 668.258H214.435L227.938 601.93H-10.6797V601.527L-4.24805 569.368C-2.2381 559.721 2.98779 550.877 11.0273 544.445C18.665 538.014 28.715 534.798 38.7646 534.798H243.779L230.275 601.126ZM3.79199 534.396H-237V533.993L-230.568 501.834C-228.558 492.186 -223.332 483.343 -215.293 476.911C-207.655 470.479 -197.605 467.263 -187.556 467.263H17.459L3.79199 534.396ZM484.169 534.396H243.377V533.993L249.81 501.834C251.82 492.186 257.045 483.343 265.085 476.911C272.723 470.479 282.773 467.263 292.822 467.263H497.836L484.169 534.396ZM299.253 265.465L292.821 297.624C290.811 307.272 285.585 316.115 277.546 322.547C269.908 328.979 259.858 332.195 249.809 332.195H46.001V332.597L39.5693 364.756C37.5594 374.404 32.3337 383.248 24.2939 389.68C16.6562 396.111 6.60632 399.327 -3.44336 399.327H-208.058V399.729L-214.489 431.889C-216.499 441.536 -221.725 450.38 -229.765 456.812C-237.402 463.243 -247.452 466.459 -257.502 466.459H-462.517L-448.849 399.327H-208.458L-194.79 332.195H44.7939L58.4619 265.062H299.253V265.465ZM525.976 332.597L519.543 364.756C517.533 374.404 512.307 383.248 504.268 389.68C496.63 396.111 486.58 399.327 476.53 399.327H271.92V399.729L265.487 431.889C263.477 441.536 258.252 450.38 250.212 456.812C242.574 463.243 232.524 466.459 222.475 466.459H17.4609L31.1279 399.327H271.517L285.184 332.195H525.976V332.597ZM-181.123 265.465L-187.555 297.624C-189.565 307.272 -194.791 316.115 -202.83 322.547C-210.468 328.979 -220.518 332.195 -230.567 332.195H-435.582L-421.914 265.062H-181.123V265.465ZM-165.683 197.528H72.9355V197.931L66.5029 230.09C64.493 239.738 59.2673 248.582 51.2275 255.014C43.5898 261.445 33.5398 264.661 23.4902 264.661H-181.523L-168.021 198.333H-406.638V197.931L-400.206 165.771C-398.196 156.124 -392.97 147.279 -384.931 140.848C-377.293 134.416 -367.243 131.2 -357.193 131.2H-152.179L-165.683 197.528ZM568.586 131.2H327.796L314.293 197.528H553.312V197.931L546.88 230.09C544.87 239.738 539.644 248.582 531.604 255.014C523.967 261.445 513.917 264.661 503.867 264.661H298.853L312.356 198.333H73.3369V197.931L79.7686 165.771C81.7785 156.124 87.0042 147.279 95.0439 140.848C102.682 134.416 112.732 131.2 122.781 131.2H327.795V130.799L334.227 98.6396C336.237 88.9919 341.462 80.1476 349.502 73.7158C357.14 67.2841 367.19 64.0684 377.239 64.0684H582.254L568.586 131.2ZM88.209 130.799H-152.582L-146.15 98.6396C-144.14 88.9919 -138.915 80.1476 -130.875 73.7158C-123.237 67.2841 -113.187 64.0684 -103.138 64.0684H101.877L88.209 130.799ZM130.418 -70.5977L123.986 -38.4385C121.976 -28.791 116.75 -19.9474 108.711 -13.5156C101.073 -7.08385 91.0233 -3.86822 80.9736 -3.86816H-124.039V-3.46582L-130.472 28.6934C-132.482 38.341 -137.707 47.1844 -145.747 53.6162C-153.385 60.048 -163.435 63.2646 -173.484 63.2646H-378.498L-364.831 -3.86816H-124.041L-110.373 -71H130.418V-70.5977ZM603.961 -38.4395C601.951 -28.7918 596.725 -19.9474 588.686 -13.5156C581.048 -7.08385 570.998 -3.86822 560.948 -3.86816H356.337V-3.46582L349.905 28.6934C347.895 38.3409 342.669 47.1844 334.63 53.6162C326.992 60.048 316.942 63.2646 306.893 63.2646H101.878L115.546 -3.86816H355.934L369.602 -70.5986H610.393L603.961 -38.4395Z" fill="url(#paint0_linear_1042_5544)"/>
</g>
<defs>
<linearGradient id="paint0_linear_1042_5544" x1="546.986" y1="231.095" x2="-13.6445" y2="231.095" gradientUnits="userSpaceOnUse">
<stop stop-color="white" stop-opacity="0.5"/>
<stop offset="1" stop-color="white"/>
</linearGradient>
</defs>
</svg>
