<svg width="16" height="16" viewBox="0 0 16 16" fill="none" xmlns="http://www.w3.org/2000/svg">
<path d="M5.14286 12C4.94048 12 4.77095 11.936 4.63429 11.808C4.49762 11.68 4.42905 11.5218 4.42857 11.3333C4.4281 11.1449 4.49667 10.9867 4.63429 10.8587C4.7719 10.7307 4.94143 10.6667 5.14286 10.6667C5.34429 10.6667 5.51405 10.7307 5.65214 10.8587C5.79024 10.9867 5.85857 11.1449 5.85714 11.3333C5.85571 11.5218 5.78714 11.6802 5.65143 11.8087C5.51571 11.9371 5.34619 12.0009 5.14286 12ZM8 12C7.79762 12 7.6281 11.936 7.49143 11.808C7.35476 11.68 7.28619 11.5218 7.28571 11.3333C7.28524 11.1449 7.35381 10.9867 7.49143 10.8587C7.62905 10.7307 7.79857 10.6667 8 10.6667C8.20143 10.6667 8.37119 10.7307 8.50929 10.8587C8.64738 10.9867 8.71571 11.1449 8.71429 11.3333C8.71286 11.5218 8.64429 11.6802 8.50857 11.8087C8.37286 11.9371 8.20333 12.0009 8 12ZM10.8571 12C10.6548 12 10.4852 11.936 10.3486 11.808C10.2119 11.68 10.1433 11.5218 10.1429 11.3333C10.1424 11.1449 10.211 10.9867 10.3486 10.8587C10.4862 10.7307 10.6557 10.6667 10.8571 10.6667C11.0586 10.6667 11.2283 10.7307 11.3664 10.8587C11.5045 10.9867 11.5729 11.1449 11.5714 11.3333C11.57 11.5218 11.5014 11.6802 11.3657 11.8087C11.23 11.9371 11.0605 12.0009 10.8571 12ZM3 9.33333V8C3 6.82222 3.40476 5.8 4.21429 4.93333C5.02381 4.06667 6.04762 3.55555 7.28571 3.4V2H8.71429V3.4C9.95238 3.55555 10.9762 4.06667 11.7857 4.93333C12.5952 5.8 13 6.82222 13 8V9.33333H3ZM5.14286 14C4.94048 14 4.77095 13.936 4.63429 13.808C4.49762 13.68 4.42905 13.5218 4.42857 13.3333C4.4281 13.1449 4.49667 12.9867 4.63429 12.8587C4.7719 12.7307 4.94143 12.6667 5.14286 12.6667C5.34429 12.6667 5.51405 12.7307 5.65214 12.8587C5.79024 12.9867 5.85857 13.1449 5.85714 13.3333C5.85571 13.5218 5.78714 13.6802 5.65143 13.8087C5.51571 13.9371 5.34619 14.0009 5.14286 14ZM8 14C7.79762 14 7.6281 13.936 7.49143 13.808C7.35476 13.68 7.28619 13.5218 7.28571 13.3333C7.28524 13.1449 7.35381 12.9867 7.49143 12.8587C7.62905 12.7307 7.79857 12.6667 8 12.6667C8.20143 12.6667 8.37119 12.7307 8.50929 12.8587C8.64738 12.9867 8.71571 13.1449 8.71429 13.3333C8.71286 13.5218 8.64429 13.6802 8.50857 13.8087C8.37286 13.9371 8.20333 14.0009 8 14ZM10.8571 14C10.6548 14 10.4852 13.936 10.3486 13.808C10.2119 13.68 10.1433 13.5218 10.1429 13.3333C10.1424 13.1449 10.211 12.9867 10.3486 12.8587C10.4862 12.7307 10.6557 12.6667 10.8571 12.6667C11.0586 12.6667 11.2283 12.7307 11.3664 12.8587C11.5045 12.9867 11.5729 13.1449 11.5714 13.3333C11.57 13.5218 11.5014 13.6802 11.3657 13.8087C11.23 13.9371 11.0605 14.0009 10.8571 14Z" fill="#E52F24"/>
</svg>
