<svg width="16" height="16" viewBox="0 0 16 16" fill="none" xmlns="http://www.w3.org/2000/svg">
<path d="M13.2532 3H2.7464C2.3348 3 2 3.359 2 3.8V11.6C2 11.7106 2.167 11.8 2.3732 11.8C2.5794 11.8 2.7464 11.7106 2.7464 11.6V11.3772L3.123 10.9758L3.7082 11.6H4.4886L5.0738 10.9758L5.659 11.6H6.4394L7.0246 10.9758L7.4064 11.383C7.26989 11.7047 7.19963 12.0506 7.1998 12.4C7.1998 13.836 8.3638 15 9.7998 15C11.2358 15 12.3998 13.836 12.3998 12.4C12.3998 12.1208 12.3546 11.8522 12.273 11.6H12.2918L12.877 10.9758L13.2532 11.3766V11.6C13.2532 11.7106 13.4202 11.8 13.6266 11.8C13.8328 11.8 14 11.7106 14 11.6V3.8C14 3.359 13.665 3 13.2532 3ZM12.9712 3.8L12.8768 3.9006L12.7826 3.8H12.9712ZM11.801 3.8H12.0026L12.4874 4.3168L11.9018 4.941L11.3166 4.3168L11.801 3.8ZM8.3902 9.5194L8.9754 8.8952L9.5606 9.5194L9.2392 9.8624C9.09969 9.89323 8.96296 9.93551 8.8304 9.9888L8.3902 9.5194ZM7.4922 12.4366C7.46498 12.5078 7.44599 12.5819 7.4356 12.6574C7.41807 12.4754 7.41881 12.2921 7.4378 12.1102C7.4446 12.2206 7.46283 12.33 7.4922 12.4366ZM9.9958 10.0654C9.9318 10.1506 9.8658 10.2774 9.8348 10.3396C9.704 10.361 9.2068 10.456 8.817 10.7088C8.7382 10.688 8.5012 10.6324 8.2764 10.6518C8.3318 10.544 8.4152 10.4642 8.4242 10.456C8.455 10.4338 9.0504 10.0176 9.7734 10.0266V10.0278C9.8376 10.0324 9.9314 10.0462 9.9958 10.0654ZM11.5448 11.2722C11.4182 11.2074 11.0996 11.0686 10.6628 11.0452C10.597 10.9478 10.3482 10.6076 9.9556 10.3716C10.0094 10.2664 10.0842 10.138 10.1276 10.099C10.1418 10.095 10.164 10.0914 10.1976 10.0914C10.4082 10.0914 10.7718 10.2292 10.8038 10.2416C10.8372 10.2594 11.491 10.6116 11.6186 10.9482C11.6176 10.9858 11.6086 11.1192 11.5448 11.2722ZM11.8724 12.3704C11.7266 12.8242 11.4382 13.13 11.3648 13.202C11.0668 13.1878 10.7706 13.147 10.4798 13.08C10.4008 12.8048 10.1402 12.1262 10.0806 11.972C10.2702 11.7018 10.4627 11.4336 10.658 11.1674C11.1322 11.1936 11.4646 11.3664 11.5292 11.4026C11.804 11.844 11.8638 12.295 11.8724 12.3704ZM7.6014 11.5402C7.706 11.353 8.0042 10.876 8.2006 10.7856C8.4046 10.744 8.6586 10.7956 8.7618 10.8208C8.752 10.9556 8.7334 11.3316 8.7894 11.726C8.5636 11.9074 8.2068 12.43 8.1144 12.5678C7.8292 12.5192 7.6596 12.4304 7.6088 12.4004C7.5028 12.0156 7.588 11.5998 7.6014 11.5402ZM8.8704 11.8172C9.23612 11.8844 9.60192 11.9512 9.9678 12.0176C10.0272 12.1718 10.2886 12.8534 10.3636 13.1162C10.2812 13.2138 9.9572 13.5914 9.638 13.887C9.2992 13.8886 8.7228 13.6932 8.6132 13.6546C8.374 13.268 8.238 12.7626 8.2088 12.6466C8.2842 12.5332 8.6574 11.9828 8.8704 11.8172ZM8.582 13.773C8.7178 13.8208 9.2756 14.0098 9.6314 14.0098C9.6918 14.0908 9.89 14.3454 10.1328 14.5396C9.9816 14.6876 9.7634 14.7576 9.7248 14.769C9.0476 14.7872 8.388 14.4064 8.2416 14.0564C8.367 13.9356 8.522 13.8178 8.582 13.773ZM10.2534 14.5898C10.3612 14.5752 10.825 14.495 11.2442 14.187C11.2718 14.1904 11.3174 14.1938 11.3682 14.1922C11.1168 14.4388 10.5034 14.7138 10.0302 14.7678C10.1134 14.7204 10.1887 14.6604 10.2534 14.5898ZM11.3152 14.0702C11.4658 13.6778 11.4594 13.3822 11.452 13.2876C11.5348 13.2068 11.8184 12.9044 11.9758 12.4448C12.0606 12.4588 12.1158 12.4806 12.142 12.4926C12.1512 12.5258 12.1664 12.603 12.1574 12.7198C12.0936 13.14 11.8718 13.7696 11.4838 14.0482C11.4452 14.068 11.3764 14.0724 11.3152 14.0702ZM9.3656 8.479L9.9508 7.8548L10.536 8.479L9.9508 9.1032L9.3656 8.479ZM8.9754 8.0626L8.3902 7.4384L8.9754 6.8142L9.5606 7.4384L8.9754 8.0626ZM10.3412 7.4384L10.9264 6.8142L11.5114 7.4384L10.9264 8.0626L10.3412 7.4384ZM10.3412 5.3572L10.9264 4.733L11.5114 5.3572L10.9264 5.9814L10.3412 5.3572ZM10.536 6.3982L9.9508 7.0224L9.3656 6.3982L9.9508 5.7734L10.536 6.3982ZM8.9754 5.9814L8.3902 5.3572L8.9754 4.733L9.5606 5.3572L8.9754 5.9814ZM8.5852 6.3982L8 7.0224L7.4148 6.3982L8 5.7734L8.5852 6.3982ZM7.0246 5.9814L6.4394 5.3572L7.0246 4.733L7.6098 5.3572L7.0246 5.9814ZM6.6344 6.3982L6.0492 7.0224L5.464 6.3982L6.0492 5.7734L6.6344 6.3982ZM5.0738 5.9814L4.4886 5.3572L5.0738 4.733L5.659 5.3572L5.0738 5.9814ZM4.6836 6.3982L4.0984 7.0224L3.5132 6.3982L4.0984 5.7734L4.6836 6.3982ZM4.6836 8.479L4.0984 9.1032L3.5132 8.479L4.0984 7.8548L4.6836 8.479ZM4.4886 7.4384L5.0738 6.8142L5.659 7.4384L5.0738 8.0626L4.4886 7.4384ZM6.0492 7.8546L6.6344 8.4788L6.0492 9.103L5.464 8.4788L6.0492 7.8546ZM6.4394 7.4384L7.0246 6.8142L7.6098 7.4384L7.0246 8.0626L6.4394 7.4384ZM8 7.8546L8.5852 8.4788L8 9.1032L7.4148 8.479L8 7.8546ZM10.7876 9.9954L10.3414 9.5194L10.9266 8.8952L11.5116 9.5194L10.981 10.0856C10.9177 10.0531 10.8532 10.023 10.7876 9.9954ZM11.3166 8.479L11.9018 7.8548L12.4874 8.479L11.9018 9.1032L11.3166 8.479ZM11.3166 6.3982L11.9018 5.7734L12.4874 6.3982L11.9018 7.0224L11.3166 6.3982ZM11.0208 3.8L10.9264 3.9006L10.832 3.8H11.0208ZM9.8502 3.8H10.0514L10.536 4.3168L9.9508 4.941L9.3656 4.3168L9.8502 3.8ZM9.0698 3.8L8.9754 3.9006L8.881 3.8H9.0698ZM7.8994 3.8H8.1006L8.5852 4.3168L8 4.941L7.4148 4.3168L7.8994 3.8ZM7.119 3.8L7.0246 3.9006L6.9302 3.8H7.119ZM5.9486 3.8H6.1498L6.6344 4.3168L6.0492 4.941L5.464 4.3168L5.9486 3.8ZM5.1682 3.8L5.0738 3.9006L4.9794 3.8H5.1682ZM3.9978 3.8H4.199L4.6836 4.3168L4.0984 4.941L3.5132 4.3168L3.9978 3.8ZM3.2172 3.8L3.123 3.9006L3.0288 3.8H3.2172ZM2.7464 5.1344L3.123 4.733L3.7082 5.3572L3.123 5.9814L2.7464 5.58V5.1344ZM2.7464 7.2156L3.123 6.8142L3.7082 7.4384L3.123 8.0626L2.7464 7.6612V7.2156ZM2.7464 9.7422V9.2964L3.123 8.895L3.7082 9.5192L3.123 10.1434L2.7464 9.7422ZM4.0984 11.1838L3.5132 10.5596L4.0984 9.9354L4.6836 10.5596L4.0984 11.1838ZM4.4886 9.5194L5.0738 8.8952L5.659 9.5194L5.0738 10.1436L4.4886 9.5194ZM6.0492 11.1838L5.464 10.5596L6.0492 9.9354L6.6344 10.5596L6.0492 11.1838ZM6.4394 9.5194L7.0246 8.8952L7.6098 9.5194L7.0246 10.1436L6.4394 9.5194ZM7.4148 10.5596L8 9.9354L8.3126 10.269C8.07783 10.4334 7.87185 10.6354 7.703 10.867L7.4148 10.5596ZM12.022 11.0554C11.8733 10.8083 11.6845 10.5877 11.4634 10.4026L11.9016 9.9352L12.4872 10.5594L12.022 11.0554ZM13.2532 9.7426L12.877 10.1436L12.2918 9.5194L12.877 8.8952L13.2532 9.2962V9.7426ZM13.2532 7.6618L12.877 8.0628L12.2918 7.4386L12.877 6.8144L13.2532 7.2154V7.6618ZM13.2532 5.5804L12.877 5.9814L12.2918 5.3572L12.877 4.733L13.2532 5.134V5.5804Z" fill="#E52F24"/>
</svg>
