<svg width="16" height="16" viewBox="0 0 16 16" fill="none" xmlns="http://www.w3.org/2000/svg">
<path d="M1 13.7692L2.09785 3.79039C2.30105 7.04076 2.22126 10.7919 3.17173 12.7203C3.51014 10.1553 3.64611 7.64088 3.49072 5.19963C3.95055 7.36484 4.5642 9.47869 4.68275 11.7578C4.90609 10.0684 5.06532 8.3896 5.64312 6.64119C5.62016 8.61008 5.12485 10.4135 6.02599 11.3971C6.4619 9.85652 6.90162 8.31953 6.97616 6.41739C7.61856 8.28576 7.53013 10.5195 7.72964 12.6095C7.98386 10.5539 8.19114 4.8221 9.14634 3C9.05241 6.77468 9.0297 9.7635 9.97383 11.2824C10.907 10.1144 10.9876 7.82602 11.0092 5.65448C11.6679 7.51947 12.1102 9.6442 12.1525 12.2488C12.4131 10.0756 12.7163 7.90244 13.463 5.72938C13.2894 8.39594 13.4242 10.4696 14.0527 11.5938C14.4683 9.91602 14.823 8.23829 14.9322 6.56025C15.4885 9.06039 15.3248 11.3802 15.4368 13.7692H1Z" fill="#E52F24"/>
</svg>
