<svg width="16" height="16" viewBox="0 0 16 16" fill="none" xmlns="http://www.w3.org/2000/svg">
<path d="M8 2C11.3138 2 14 4.6862 14 8C14 11.3138 11.3138 14 8 14C4.6862 14 2 11.3138 2 8C2 4.6862 4.6862 2 8 2ZM10.0448 3.656L8.3528 4.8854C8.26095 4.95218 8.15203 4.99152 8.0387 4.99885C7.92537 5.00618 7.81229 4.98119 7.7126 4.9268L7.6472 4.8854L5.9552 3.656C5.46906 3.88528 5.02488 4.19458 4.6412 4.571L4.5008 4.7144L5.147 6.7022C5.18212 6.81018 5.18588 6.92591 5.15784 7.03595C5.1298 7.14598 5.07112 7.2458 4.9886 7.3238L4.9286 7.373L3.2372 8.6018C3.3056 9.1478 3.4652 9.6644 3.701 10.1372L3.7928 10.3124H5.8838C5.99859 10.3123 6.11099 10.3452 6.20766 10.4071C6.30433 10.469 6.38122 10.5573 6.4292 10.6616L6.4544 10.727L7.1012 12.716C7.62161 12.815 8.15482 12.8272 8.6792 12.752L8.8994 12.716L9.5456 10.727C9.58106 10.6179 9.64704 10.5213 9.73572 10.4485C9.82441 10.3758 9.93209 10.33 10.046 10.3166L10.1162 10.3124H12.2072C12.4653 9.84286 12.6429 9.33341 12.7328 8.8052L12.7628 8.6018L11.0708 7.373C10.9789 7.30623 10.9078 7.21473 10.8659 7.10915C10.8239 7.00357 10.8128 6.88825 10.8338 6.7766L10.853 6.7022L11.4992 4.7144C11.132 4.32266 10.7016 3.99531 10.226 3.746L10.0448 3.656ZM7.6472 5.7146C7.73905 5.64782 7.84798 5.60848 7.9613 5.60115C8.07463 5.59382 8.18771 5.61881 8.2874 5.6732L8.3528 5.7146L10.0646 6.9584C10.1564 7.02513 10.2274 7.11653 10.2694 7.22199C10.3113 7.32745 10.3225 7.44264 10.3016 7.5542L10.2824 7.6292L9.6284 9.6416C9.59294 9.75068 9.52696 9.84731 9.43828 9.92005C9.34959 9.99279 9.24191 10.0386 9.128 10.052L9.0578 10.0562H6.9422C6.82741 10.0563 6.71501 10.0234 6.61834 9.9615C6.52167 9.89961 6.44478 9.81128 6.3968 9.707L6.3716 9.6416L5.7176 7.6292C5.68248 7.52122 5.67872 7.40549 5.70676 7.29545C5.7348 7.18542 5.79348 7.0856 5.876 7.0076L5.936 6.9584L7.6472 5.7146Z" fill="#E52F24"/>
</svg>
