<svg width="16" height="16" viewBox="0 0 16 16" fill="none" xmlns="http://www.w3.org/2000/svg">
<path fill-rule="evenodd" clip-rule="evenodd" d="M7.66188 15C7.66188 15 12.3277 8.43477 12.3277 5.85755C12.3535 5.2292 12.2521 4.60211 12.0294 4.01399C11.8068 3.42586 11.4676 2.8888 11.0321 2.43508C10.5967 1.98136 10.074 1.62033 9.49554 1.37372C8.91706 1.12712 8.29468 1 7.66581 1C7.03695 1 6.41457 1.12712 5.83608 1.37372C5.25759 1.62033 4.73493 1.98136 4.29949 2.43508C3.86404 2.8888 3.52481 3.42586 3.30218 4.01399C3.07955 4.60211 2.9781 5.2292 3.00394 5.85755C3.00394 8.43477 7.66188 15 7.66188 15ZM10.3258 5.97576C10.3258 7.46878 9.11548 8.67909 7.62246 8.67909C6.12945 8.67909 4.91913 7.46878 4.91913 5.97576C4.91913 4.48274 6.12945 3.27241 7.62246 3.27241C9.11548 3.27241 10.3258 4.48274 10.3258 5.97576Z" fill="#E52F24"/>
</svg>
