<svg width="16" height="16" viewBox="0 0 16 16" fill="none" xmlns="http://www.w3.org/2000/svg">
<path d="M14 5.11461V5.15595C14 5.64293 14 5.88699 13.8828 6.08631C13.7655 6.28564 13.5521 6.40398 13.1262 6.64125L12.6772 6.8904C12.9864 5.84395 13.09 4.71937 13.1279 3.75786L13.1336 3.63272L13.1347 3.60327C13.5034 3.73125 13.7106 3.82694 13.8397 4.00588C14 4.22842 14 4.52401 14 5.11461ZM2.6748 5.11461V5.15595C2.6748 5.64293 2.6748 5.88699 2.79202 6.08631C2.90924 6.28564 3.12271 6.40398 3.54854 6.64125L3.99815 6.8904C3.68841 5.84395 3.58478 4.71937 3.54684 3.75786L3.54118 3.63272L3.54061 3.60327C3.17141 3.73125 2.96416 3.82694 2.83506 4.00588C2.6748 4.22842 2.6748 4.52457 2.6748 5.11461Z" fill="#E52F24"/>
<path fill-rule="evenodd" clip-rule="evenodd" d="M8.3374 1.62537C9.3476 1.62537 10.1794 1.71427 10.8159 1.82186C11.4609 1.93059 11.7831 1.98495 12.0526 2.31677C12.3222 2.6486 12.3074 3.00704 12.2791 3.72392C12.1817 6.18658 11.6506 9.26193 8.76209 9.53373V11.5349H9.57184C9.7027 11.535 9.82949 11.5804 9.93066 11.6634C10.0318 11.7464 10.1011 11.8618 10.1268 11.9902L10.2344 12.5258H11.7349C11.8476 12.5258 11.9556 12.5706 12.0352 12.6502C12.1149 12.7299 12.1596 12.8379 12.1596 12.9505C12.1596 13.0632 12.1149 13.1712 12.0352 13.2508C11.9556 13.3305 11.8476 13.3752 11.7349 13.3752H4.93985C4.82721 13.3752 4.71919 13.3305 4.63954 13.2508C4.5599 13.1712 4.51515 13.0632 4.51515 12.9505C4.51515 12.8379 4.5599 12.7299 4.63954 12.6502C4.71919 12.5706 4.82721 12.5258 4.93985 12.5258H6.44043L6.54802 11.9902C6.57367 11.8618 6.64297 11.7464 6.74414 11.6634C6.8453 11.5804 6.9721 11.535 7.10295 11.5349H7.9127V9.53373C5.02479 9.26193 4.49364 6.18601 4.39624 3.72392C4.36736 3.00704 4.35321 2.64803 4.62274 2.31677C4.89172 1.98495 5.21392 1.93059 5.85889 1.82186C6.67817 1.68766 7.5072 1.62193 8.3374 1.62537ZM8.87647 4.00309L8.82098 3.90343C8.6058 3.51667 8.49821 3.32415 8.3374 3.32415C8.17658 3.32415 8.06899 3.51667 7.85381 3.90343L7.79832 4.00309C7.73716 4.11294 7.70659 4.1673 7.65902 4.20355C7.61089 4.23979 7.55143 4.25338 7.43252 4.27999L7.32493 4.30491C6.90703 4.39947 6.69808 4.44647 6.64825 4.60615C6.59842 4.76584 6.74112 4.93289 7.02594 5.26585L7.09956 5.35192C7.18053 5.44648 7.2213 5.49348 7.23942 5.55237C7.25754 5.61126 7.25131 5.67412 7.23942 5.80039L7.2281 5.91534C7.18506 6.35986 7.16354 6.5824 7.29322 6.68092C7.42346 6.77945 7.61938 6.68942 8.01067 6.50935L8.11146 6.46291C8.22301 6.41195 8.27851 6.38647 8.3374 6.38647C8.39629 6.38647 8.45178 6.41195 8.56333 6.46291L8.66413 6.50935C9.05541 6.68998 9.25134 6.77945 9.38158 6.68092C9.51182 6.5824 9.48973 6.35986 9.4467 5.91534L9.43537 5.80039C9.42348 5.67412 9.41725 5.61126 9.43537 5.55237C9.45349 5.49348 9.49426 5.44648 9.57524 5.35192L9.64885 5.26585C9.93368 4.93289 10.0764 4.76641 10.0265 4.60615C9.97671 4.44647 9.76776 4.39947 9.34987 4.30491L9.24228 4.27999C9.12336 4.25338 9.06391 4.24035 9.01577 4.20355C8.96821 4.1673 8.93763 4.11294 8.87647 4.00309Z" fill="#E52F24"/>
</svg>
