<svg width="16" height="16" viewBox="0 0 16 16" fill="none" xmlns="http://www.w3.org/2000/svg">
<path d="M8 2C11.3138 2 14 4.6862 14 8C14 11.3138 11.3138 14 8 14C4.6862 14 2 11.3138 2 8C2 4.6862 4.6862 2 8 2ZM8.9 5H7.4C7.08174 5 6.77652 5.12643 6.55147 5.35147C6.32643 5.57652 6.2 5.88174 6.2 6.2V10.4C6.2 10.5591 6.26321 10.7117 6.37574 10.8243C6.48826 10.9368 6.64087 11 6.8 11C6.95913 11 7.11174 10.9368 7.22426 10.8243C7.33679 10.7117 7.4 10.5591 7.4 10.4V9.2H8.9C9.45695 9.2 9.9911 8.97875 10.3849 8.58492C10.7788 8.1911 11 7.65695 11 7.1C11 6.54305 10.7788 6.0089 10.3849 5.61508C9.9911 5.22125 9.45695 5 8.9 5ZM8.9 6.2C9.1387 6.2 9.36761 6.29482 9.5364 6.4636C9.70518 6.63239 9.8 6.86131 9.8 7.1C9.8 7.3387 9.70518 7.56761 9.5364 7.7364C9.36761 7.90518 9.1387 8 8.9 8H7.4V6.2H8.9Z" fill="#E52F24"/>
</svg>
