<svg width="16" height="16" viewBox="0 0 16 16" fill="none" xmlns="http://www.w3.org/2000/svg">
<path d="M9.23333 9.71429C11.45 9.71429 13 8.12166 13 5.83226C13 3.54286 11.45 2 9.23333 2H4.97917C4.80659 2 4.66667 2.14392 4.66667 2.32143V7.85621H3.3125C3.13992 7.85621 3 8.00013 3 8.17764V9.39286C3 9.57037 3.13992 9.71429 3.3125 9.71429H4.66667V10.5714H3.3125C3.13992 10.5714 3 10.7153 3 10.8929V11.9643C3 12.1418 3.13992 12.2857 3.3125 12.2857H4.66667V13.6786C4.66667 13.8561 4.80659 14 4.97917 14H6.50417C6.67674 14 6.81667 13.8561 6.81667 13.6786V12.2857H11.0208C11.1934 12.2857 11.3333 12.1418 11.3333 11.9643V10.8929C11.3333 10.7153 11.1934 10.5714 11.0208 10.5714H6.81667V9.71429H9.23333ZM6.81667 3.84146H8.86667C10.0833 3.84146 10.8167 4.6212 10.8167 5.83226C10.8167 7.0599 10.0833 7.85621 8.83333 7.85621H6.81667V3.84146Z" fill="#E52F24"/>
</svg>
