<svg width="16" height="16" viewBox="0 0 16 16" fill="none" xmlns="http://www.w3.org/2000/svg">
<path fill-rule="evenodd" clip-rule="evenodd" d="M7.375 2H4.25C3.91848 2 3.60054 2.12643 3.36612 2.35147C3.1317 2.57652 3 2.88174 3 3.2V12.8C3 13.1183 3.1317 13.4235 3.36612 13.6485C3.60054 13.8736 3.91848 14 4.25 14H7.375V2ZM5.5 7.4C5.33424 7.4 5.17527 7.46321 5.05806 7.57574C4.94085 7.68826 4.875 7.84087 4.875 8C4.875 8.15913 4.94085 8.31174 5.05806 8.42426C5.17527 8.53679 5.33424 8.6 5.5 8.6H6.125C6.29076 8.6 6.44973 8.53679 6.56694 8.42426C6.68415 8.31174 6.75 8.15913 6.75 8C6.75 7.84087 6.68415 7.68826 6.56694 7.57574C6.44973 7.46321 6.29076 7.4 6.125 7.4H5.5ZM8.625 14H11.75C12.0815 14 12.3995 13.8736 12.6339 13.6485C12.8683 13.4235 13 13.1183 13 12.8V3.2C13 2.88174 12.8683 2.57652 12.6339 2.35147C12.3995 2.12643 12.0815 2 11.75 2H8.625V14ZM9.25 8C9.25 7.84087 9.31585 7.68826 9.43306 7.57574C9.55027 7.46321 9.70924 7.4 9.875 7.4H10.5C10.6658 7.4 10.8247 7.46321 10.9419 7.57574C11.0592 7.68826 11.125 7.84087 11.125 8C11.125 8.15913 11.0592 8.31174 10.9419 8.42426C10.8247 8.53679 10.6658 8.6 10.5 8.6H9.875C9.70924 8.6 9.55027 8.53679 9.43306 8.42426C9.31585 8.31174 9.25 8.15913 9.25 8Z" fill="#E52F24"/>
</svg>
