<svg width="16" height="16" viewBox="0 0 16 16" fill="none" xmlns="http://www.w3.org/2000/svg">
<path d="M7.74316 4V5.97461C6.42805 6.10357 5.40075 7.21259 5.40039 8.56152C5.40039 9.90763 6.42344 11.0152 7.73437 11.1484H7.74316L7.74316 13.125L2.0166 13.125C1.45511 13.1248 1 12.669 1 12.1074L1 5.0166C1.00023 4.45525 1.45525 4.00023 2.0166 4L7.74316 4ZM1.00098 5.40723V5.91504H3.32129L3.32129 11.209H1.00293L1.00293 11.7168H3.8291L3.8291 5.40723H1.00098ZM7.74316 10.6357C6.70943 10.509 5.90918 9.62956 5.90918 8.56152C5.90954 7.49375 6.70957 6.61389 7.74316 6.4873L7.74316 10.6357ZM8.25684 6.4873C9.29033 6.61405 10.0914 7.49387 10.0918 8.56152C10.0918 9.62943 9.29047 10.5088 8.25684 10.6357V6.4873ZM13.9824 4C14.544 4 14.9998 4.45511 15 5.0166V5.40723H12.1719L12.1719 11.7168L14.998 11.7168V11.209L12.6797 11.209L12.6797 5.91504H15L15 12.1074C15 12.6691 14.5441 13.125 13.9824 13.125H8.25684L8.25684 11.1484C9.48438 11.0278 10.4622 10.0544 10.5869 8.82813L10.6006 8.56152C10.6002 7.21271 9.57184 6.10374 8.25684 5.97461V4L13.9824 4Z" fill="#E52F24"/>
</svg>
