<svg width="36" height="36" viewBox="0 0 36 36" fill="none" xmlns="http://www.w3.org/2000/svg">
<path d="M18 15.6C19.273 15.6 20.4939 15.0943 21.3941 14.1941C22.2943 13.2939 22.8 12.073 22.8 10.8C22.8 9.52696 22.2943 8.30606 21.3941 7.40589C20.4939 6.50571 19.273 6 18 6C16.727 6 15.5061 6.50571 14.6059 7.40589C13.7057 8.30606 13.2 9.52696 13.2 10.8C13.2 12.073 13.7057 13.2939 14.6059 14.1941C15.5061 15.0943 16.727 15.6 18 15.6ZM10.2 19.2C10.9956 19.2 11.7587 18.8839 12.3213 18.3213C12.8839 17.7587 13.2 16.9956 13.2 16.2C13.2 15.4044 12.8839 14.6413 12.3213 14.0787C11.7587 13.5161 10.9956 13.2 10.2 13.2C9.40435 13.2 8.64129 13.5161 8.07868 14.0787C7.51607 14.6413 7.2 15.4044 7.2 16.2C7.2 16.9956 7.51607 17.7587 8.07868 18.3213C8.64129 18.8839 9.40435 19.2 10.2 19.2ZM28.8 16.2C28.8 16.9956 28.4839 17.7587 27.9213 18.3213C27.3587 18.8839 26.5957 19.2 25.8 19.2C25.0044 19.2 24.2413 18.8839 23.6787 18.3213C23.1161 17.7587 22.8 16.9956 22.8 16.2C22.8 15.4044 23.1161 14.6413 23.6787 14.0787C24.2413 13.5161 25.0044 13.2 25.8 13.2C26.5957 13.2 27.3587 13.5161 27.9213 14.0787C28.4839 14.6413 28.8 15.4044 28.8 16.2ZM18 16.8C19.5913 16.8 21.1174 17.4321 22.2426 18.5574C23.3679 19.6826 24 21.2087 24 22.8V30H12V22.8C12 21.2087 12.6321 19.6826 13.7574 18.5574C14.8826 17.4321 16.4087 16.8 18 16.8ZM9.6 22.8C9.6 21.9684 9.72 21.1656 9.9456 20.4072L9.7416 20.424C8.71305 20.5369 7.7624 21.0256 7.07192 21.7962C6.38143 22.5669 5.99973 23.5653 6 24.6V30H9.6V22.8ZM30 30V24.6C30.0001 23.53 29.5919 22.5004 28.8586 21.7212C28.1254 20.942 27.1224 20.472 26.0544 20.4072C26.2788 21.1656 26.4 21.9684 26.4 22.8V30H30Z" fill="#E52F24"/>
</svg>
