<svg width="16" height="16" viewBox="0 0 16 16" fill="none" xmlns="http://www.w3.org/2000/svg">
<path d="M4.05875 3.38462C3.71418 4.02708 3.71418 4.88923 3.71418 6.61538V9.40954C4.08275 9.38462 4.49761 9.38462 4.94419 9.38462H11.0556C11.5013 9.38462 11.9171 9.38462 12.2856 9.40954V6.61538C12.2856 4.88923 12.2856 4.02708 11.9411 3.38462C11.7154 2.96367 11.3908 2.61412 10.9999 2.37108C10.4033 2 9.60277 2 7.99991 2C6.39705 2 5.59647 2 4.9999 2.37108C4.60902 2.61412 4.28444 2.96367 4.05875 3.38462ZM3.07132 13.9917C2.64104 13.9732 2.38046 13.9105 2.20218 13.7009C1.94761 13.4018 1.98104 12.9865 2.04789 12.1548C2.09504 11.5548 2.20304 11.1505 2.44818 10.8486C2.88704 10.3077 3.59247 10.3077 5.00418 10.3077H10.9956C12.4073 10.3077 13.1128 10.3077 13.5516 10.8486C13.7968 11.1495 13.9048 11.5538 13.9528 12.1548C14.0188 12.9855 14.0522 13.4018 13.7976 13.7009C13.6193 13.9105 13.3588 13.9732 12.9285 13.9917L11.6428 14H4.35704L3.07132 13.9917Z" fill="#E52F24"/>
</svg>
