<svg width="16" height="16" viewBox="0 0 16 16" fill="none" xmlns="http://www.w3.org/2000/svg">
<path d="M8 2C11.3138 2 14 4.6862 14 8C14 11.3138 11.3138 14 8 14C4.6862 14 2 11.3138 2 8C2 4.6862 4.6862 2 8 2ZM8 4.4C7.84087 4.4 7.68826 4.46321 7.57574 4.57574C7.46321 4.68826 7.4 4.84087 7.4 5V8C7.40003 8.15912 7.46327 8.3117 7.5758 8.4242L9.3758 10.2242C9.48896 10.3335 9.64052 10.394 9.79784 10.3926C9.95516 10.3912 10.1056 10.3281 10.2169 10.2169C10.3281 10.1056 10.3912 9.95516 10.3926 9.79784C10.394 9.64052 10.3335 9.48896 10.2242 9.3758L8.6 7.7516V5C8.6 4.84087 8.53679 4.68826 8.42426 4.57574C8.31174 4.46321 8.15913 4.4 8 4.4Z" fill="#E52F24"/>
</svg>
