<svg width="16" height="16" viewBox="0 0 16 16" fill="none" xmlns="http://www.w3.org/2000/svg">
<path d="M12.0863 10.5814C12.1919 10.3812 12.4258 10.3127 12.6087 10.4282C12.7916 10.5439 12.8543 10.7998 12.7487 11C12.2674 11.9123 11.5752 12.67 10.7416 13.1966C9.96017 13.6903 9.08021 13.9645 8.18025 13.9967L7.99997 14C7.0375 14.0002 6.09189 13.7232 5.25832 13.1966C4.42473 12.67 3.73252 11.9123 3.25127 11C3.14565 10.7998 3.20829 10.5438 3.39121 10.4282C3.57414 10.3126 3.80802 10.3812 3.91364 10.5814C4.32774 11.3664 4.92353 12.018 5.64081 12.4711C6.35809 12.9242 7.17176 13.1629 7.99997 13.1628L8.15485 13.1601C8.92937 13.1324 9.68661 12.896 10.3591 12.4711C11.0764 12.018 11.6722 11.3663 12.0863 10.5814ZM8.18025 2.00327C9.08021 2.03552 9.96017 2.30974 10.7416 2.80342C11.5752 3.33003 12.2674 4.08773 12.7487 5C12.8543 5.20017 12.7916 5.45615 12.6087 5.57177C12.4258 5.68735 12.1919 5.61876 12.0863 5.4186C11.6722 4.63367 11.0764 3.98202 10.3591 3.52889C9.68661 3.10403 8.92937 2.86763 8.15485 2.83993L7.99997 2.83721C7.17176 2.83705 6.35809 3.07575 5.64081 3.52889C4.92353 3.98203 4.32774 4.63364 3.91364 5.4186C3.80802 5.6188 3.57414 5.68736 3.39121 5.57177C3.20829 5.45616 3.14565 5.20021 3.25127 5C3.73252 4.08774 4.42473 3.33003 5.25832 2.80342C6.09189 2.27684 7.0375 1.99982 7.99997 2L8.18025 2.00327Z" fill="#E52F24"/>
<path d="M5.91438 10.799C6.15142 10.7247 6.39848 10.8755 6.46648 11.1357C6.72007 12.1084 7.04808 12.8851 7.31119 13.4159C7.44256 13.6809 7.55739 13.884 7.63814 14.019C7.67849 14.0864 7.7108 14.1366 7.73181 14.1691C7.74231 14.1854 7.74967 14.1977 7.7545 14.2049C7.75688 14.2085 7.75885 14.2106 7.75973 14.2119L7.76031 14.2126C7.90964 14.4283 7.87117 14.736 7.67479 14.9C7.47836 15.064 7.19816 15.0218 7.04882 14.8061L7.04766 14.8055L7.04707 14.8042C7.04632 14.8031 7.0453 14.8014 7.04417 14.7997C7.04185 14.7963 7.03872 14.7914 7.03486 14.7857C7.02714 14.7741 7.01627 14.7578 7.00286 14.7371C6.97594 14.6954 6.9382 14.6352 6.89174 14.5576C6.79874 14.4021 6.67068 14.1759 6.5264 13.8848C6.23802 13.3031 5.8826 12.46 5.60779 11.406C5.5399 11.1455 5.67717 10.8736 5.91438 10.799ZM9.53352 11.1357C9.60156 10.8754 9.84905 10.7244 10.0862 10.799C10.3233 10.8737 10.4601 11.1455 10.3922 11.406C10.1174 12.4597 9.76196 13.303 9.4736 13.8848C9.32935 14.1759 9.20124 14.4021 9.10826 14.5576C9.06178 14.6353 9.02405 14.6954 8.99714 14.7371C8.98369 14.7579 8.97286 14.7741 8.96514 14.7857C8.96128 14.7914 8.95815 14.7963 8.95583 14.7997C8.95475 14.8013 8.95365 14.8025 8.95293 14.8035C8.95255 14.8041 8.95262 14.8051 8.95234 14.8055L8.95176 14.8061C8.95169 14.8062 8.95136 14.8064 8.59572 14.5097L8.95176 14.8061C8.80246 15.0218 8.52166 15.0639 8.3252 14.9C8.12892 14.7361 8.09058 14.4283 8.23969 14.2126L8.24027 14.2119C8.24117 14.2106 8.24316 14.2084 8.2455 14.2049C8.2503 14.1977 8.2578 14.1859 8.26819 14.1698C8.28921 14.1372 8.32148 14.0865 8.36186 14.019C8.44264 13.8839 8.5574 13.6804 8.68881 13.4152C8.95192 12.8844 9.27995 12.108 9.53352 11.1357ZM3.23421 6.20099C3.43151 6.20099 3.60569 6.34292 3.66238 6.55046L4.12779 8.25372L4.5932 6.55046C4.66411 6.2909 4.9136 6.14357 5.14995 6.22143C5.38611 6.29933 5.52023 6.5728 5.44956 6.83221L4.55597 10.1033C4.49927 10.3108 4.3251 10.4534 4.12779 10.4534C3.93049 10.4534 3.75631 10.3108 3.69962 10.1033L3.23421 8.39938L2.7688 10.1033C2.7121 10.3108 2.53793 10.4534 2.34062 10.4534C2.14331 10.4534 1.96914 10.3108 1.91244 10.1033L1.01886 6.83221C0.948183 6.5728 1.08231 6.29933 1.31846 6.22143C1.55482 6.14357 1.80431 6.2909 1.87521 6.55046L2.34062 8.25372L2.80603 6.55046C2.86273 6.34292 3.0369 6.20099 3.23421 6.20099ZM8 6.20099C8.19731 6.20099 8.37148 6.34292 8.42818 6.55046L8.89359 8.25372L9.359 6.55046C9.4299 6.2909 9.67939 6.14357 9.91574 6.22143C10.1519 6.29933 10.286 6.5728 10.2153 6.83221L9.32176 10.1033C9.26507 10.3108 9.09089 10.4534 8.89359 10.4534C8.69628 10.4534 8.5221 10.3108 8.46541 10.1033L8 8.39938L7.53459 10.1033C7.47789 10.3108 7.30372 10.4534 7.10641 10.4534C6.90911 10.4534 6.73493 10.3108 6.67824 10.1033L5.78465 6.83221C5.71398 6.5728 5.8481 6.29933 6.08426 6.22143C6.32061 6.14357 6.5701 6.2909 6.641 6.55046L7.10641 8.25372L7.57182 6.55046C7.62852 6.34292 7.80269 6.20099 8 6.20099ZM12.7658 6.20099C12.9631 6.20099 13.1373 6.34292 13.194 6.55046L13.6594 8.25372L14.1248 6.55046C14.1957 6.2909 14.4452 6.14357 14.6815 6.22143C14.9177 6.29933 15.0518 6.5728 14.9811 6.83221L14.0876 10.1033C14.0309 10.3108 13.8567 10.4534 13.6594 10.4534C13.4621 10.4534 13.2879 10.3108 13.2312 10.1033L12.7658 8.39938L12.3004 10.1033C12.2437 10.3108 12.0695 10.4534 11.8722 10.4534C11.6749 10.4534 11.5007 10.3108 11.444 10.1033L10.5504 6.83221C10.4798 6.5728 10.6139 6.29933 10.8501 6.22143C11.0864 6.14357 11.3359 6.2909 11.4068 6.55046L11.8722 8.25372L12.3376 6.55046C12.3943 6.34292 12.5685 6.20099 12.7658 6.20099ZM7.04882 1.19343C7.19819 0.977879 7.47842 0.936199 7.67479 1.10015C7.87101 1.26414 7.90886 1.57131 7.75973 1.78695C7.75884 1.78825 7.75691 1.79165 7.7545 1.79526C7.74969 1.80244 7.7422 1.81432 7.73181 1.8304C7.7108 1.86291 7.67852 1.91368 7.63814 1.98117C7.55738 2.1162 7.44254 2.31932 7.31119 2.58428C7.04809 3.11503 6.72007 3.89116 6.46648 4.86381C6.39858 5.12424 6.15154 5.27492 5.91438 5.2005C5.67716 5.12591 5.53987 4.85408 5.60779 4.59356C5.88256 3.53979 6.23807 2.697 6.5264 2.11534C6.6707 1.82425 6.79873 1.59744 6.89174 1.44196C6.93821 1.36429 6.97596 1.30406 7.00286 1.26243C7.01629 1.24164 7.02715 1.22539 7.03486 1.21387C7.03864 1.20822 7.04187 1.20383 7.04417 1.20046C7.04532 1.19876 7.04631 1.19709 7.04707 1.19599L7.04766 1.19471L7.04882 1.19343ZM8.3252 1.10015C8.52158 0.936199 8.80181 0.977879 8.95118 1.19343L8.95234 1.19471L8.95293 1.19599C8.95369 1.19709 8.95468 1.19876 8.95583 1.20046C8.95813 1.20383 8.96136 1.20822 8.96514 1.21387C8.97285 1.22539 8.98371 1.24164 8.99714 1.26243C9.02404 1.30406 9.06179 1.36429 9.10826 1.44196C9.20127 1.59744 9.3293 1.82425 9.4736 2.11534C9.76193 2.697 10.1174 3.53979 10.3922 4.59356C10.4601 4.85408 10.3228 5.12591 10.0856 5.2005C9.84846 5.27492 9.60142 5.12424 9.53352 4.86381C9.27993 3.89116 8.95191 3.11503 8.68881 2.58428C8.55746 2.31932 8.44262 2.1162 8.36186 1.98117C8.32148 1.91368 8.2892 1.86291 8.26819 1.8304C8.2578 1.81432 8.25031 1.80244 8.2455 1.79526C8.24309 1.79165 8.24115 1.78889 8.24027 1.78759L8.23969 1.78695C8.09081 1.57132 8.12908 1.26406 8.3252 1.10015Z" fill="#E52F24"/>
</svg>
