<?xml version="1.0" encoding="UTF-8"?> <svg xmlns="http://www.w3.org/2000/svg" width="20" height="23" fill="none"><path fill="#E52F24" d="m10.593 21.74-.011.001-.071.035-.02.004-.014-.004-.071-.035c-.01-.003-.019-.001-.024.005l-.004.01-.017.428.005.02.01.013.104.074.015.004.012-.004.104-.074.012-.016.004-.017-.017-.427c-.003-.01-.008-.016-.017-.018Zm.265-.114-.013.002-.185.093-.01.01-.003.011.018.43.005.012.008.007.201.093c.013.004.022 0 .029-.008l.004-.014-.034-.614c-.003-.012-.01-.02-.02-.022Zm-.715.002a.02.02 0 0 0-.027.006l-.006.014-.034.614c0 .012.006.02.017.024l.015-.002.201-.093.01-.008.004-.01.017-.43-.003-.013-.01-.01-.184-.092ZM10 .481c5.523 0 10 4.477 10 10s-4.477 10-10 10-10-4.477-10-10 4.477-10 10-10Zm0 4a1 1 0 0 0-1 1v5a1 1 0 0 0 .293.707l3 3a1 1 0 0 0 1.414-1.414L11 10.067V5.481a1 1 0 0 0-1-1Z"></path></svg> 