<?xml version="1.0" encoding="UTF-8"?> <svg xmlns="http://www.w3.org/2000/svg" width="14" height="19" fill="none"><path fill="#E52F24" d="M3 15.481a.965.965 0 0 1-.712-.288.973.973 0 0 1-.288-.712c0-.282.095-.52.288-.712A.97.97 0 0 1 3 13.481c.282 0 .52.096.713.288.193.192.289.43.287.712a.987.987 0 0 1-.288.713.953.953 0 0 1-.712.287Zm4 0a.965.965 0 0 1-.712-.288.973.973 0 0 1-.288-.712c0-.282.095-.52.288-.712A.97.97 0 0 1 7 13.481c.282 0 .52.096.713.288.193.192.289.43.287.712a.987.987 0 0 1-.288.713.953.953 0 0 1-.712.287Zm4 0a.965.965 0 0 1-.712-.288.973.973 0 0 1-.288-.712c0-.282.095-.52.288-.712a.97.97 0 0 1 .712-.288c.282 0 .52.096.713.288.193.192.289.43.287.712a.987.987 0 0 1-.288.713.953.953 0 0 1-.712.287Zm-11-4v-2c0-1.766.567-3.3 1.7-4.6 1.133-1.3 2.567-2.066 4.3-2.3v-2.1h2v2.1c1.733.234 3.167 1 4.3 2.3 1.133 1.3 1.7 2.834 1.7 4.6v2H0Zm3 7a.965.965 0 0 1-.712-.288.973.973 0 0 1-.288-.712c0-.282.095-.52.288-.712A.97.97 0 0 1 3 16.481c.282 0 .52.096.713.288.193.192.289.43.287.712a.987.987 0 0 1-.288.713.953.953 0 0 1-.712.287Zm4 0a.965.965 0 0 1-.712-.288.973.973 0 0 1-.288-.712c0-.282.095-.52.288-.712A.97.97 0 0 1 7 16.481c.282 0 .52.096.713.288.193.192.289.43.287.712a.987.987 0 0 1-.288.713.953.953 0 0 1-.712.287Zm4 0a.965.965 0 0 1-.712-.288.973.973 0 0 1-.288-.712c0-.282.095-.52.288-.712a.97.97 0 0 1 .712-.288c.282 0 .52.096.713.288.193.192.289.43.287.712a.987.987 0 0 1-.288.713.953.953 0 0 1-.712.287Z"></path></svg> 