<?xml version="1.0" encoding="UTF-8"?> <svg xmlns="http://www.w3.org/2000/svg" width="20" height="20" fill="none"><path fill="#E52F24" d="M10 0c5.523 0 10 4.477 10 10s-4.477 10-10 10S0 15.523 0 10 4.477 0 10 0Zm3.408 2.76-2.82 2.049a1 1 0 0 1-1.067.069l-.109-.069-2.82-2.049a8 8 0 0 0-2.19 1.525l-.234.239 1.077 3.313a1 1 0 0 1-.264 1.036l-.1.082-2.819 2.048c.114.91.38 1.771.773 2.559l.153.292h3.485a1 1 0 0 1 .909.582l.042.109 1.078 3.315a7.999 7.999 0 0 0 2.63.06l.367-.06 1.077-3.315a1 1 0 0 1 .834-.684l.117-.007h3.485a8 8 0 0 0 .876-2.512l.05-.339-2.82-2.048a1 1 0 0 1-.395-.994l.032-.124 1.077-3.313A8.001 8.001 0 0 0 13.71 2.91l-.302-.15ZM9.412 6.191a1 1 0 0 1 1.067-.069l.109.069 2.853 2.073a1 1 0 0 1 .395.993l-.032.125-1.09 3.354a1 1 0 0 1-.834.684l-.117.007H8.237a1 1 0 0 1-.909-.582l-.042-.109-1.09-3.354a1 1 0 0 1 .264-1.036l.1-.082 2.852-2.073Z"></path></svg> 