<?xml version="1.0" encoding="UTF-8"?> <svg xmlns="http://www.w3.org/2000/svg" width="14" height="14" fill="none" viewBox="0 0 14 14"><path fill="#E52F24" d="M2.402 2.422C2 3.118 2 4.052 2 5.922v3.027c.43-.027.914-.027 1.435-.027h7.13c.52 0 1.005 0 1.435.027V5.922c0-1.87 0-2.804-.402-3.5A3 3 0 0 0 10.5 1.324C9.804.922 8.87.922 7 .922s-2.804 0-3.5.402a3 3 0 0 0-1.098 1.098ZM1.25 13.912c-.502-.02-.806-.087-1.014-.314-.297-.324-.258-.774-.18-1.675.055-.65.18-1.088.467-1.415.512-.586 1.335-.586 2.982-.586h6.99c1.647 0 2.47 0 2.982.586.286.326.412.764.468 1.415.077.9.116 1.35-.181 1.675-.208.227-.512.295-1.014.315l-1.5.009h-8.5l-1.5-.01Z"></path></svg> 