<?xml version="1.0" encoding="UTF-8"?> <svg xmlns="http://www.w3.org/2000/svg" width="20" height="21" viewBox="0 0 20 21" fill="none"><path d="M10 0.540405C15.523 0.540405 20 5.01741 20 10.5404C20 16.0634 15.523 20.5404 10 20.5404C4.477 20.5404 0 16.0634 0 10.5404C0 5.01741 4.477 0.540405 10 0.540405ZM11.5 5.54041H9C8.46957 5.54041 7.96086 5.75112 7.58579 6.12619C7.21071 6.50126 7 7.00997 7 7.54041V14.5404C7 14.8056 7.10536 15.06 7.29289 15.2475C7.48043 15.435 7.73478 15.5404 8 15.5404C8.26522 15.5404 8.51957 15.435 8.70711 15.2475C8.89464 15.06 9 14.8056 9 14.5404V12.5404H11.5C12.4283 12.5404 13.3185 12.1717 13.9749 11.5153C14.6313 10.8589 15 9.96866 15 9.04041C15 8.11215 14.6313 7.22191 13.9749 6.56553C13.3185 5.90915 12.4283 5.54041 11.5 5.54041ZM11.5 7.54041C11.8978 7.54041 12.2794 7.69844 12.5607 7.97974C12.842 8.26105 13 8.64258 13 9.04041C13 9.43823 12.842 9.81976 12.5607 10.1011C12.2794 10.3824 11.8978 10.5404 11.5 10.5404H9V7.54041H11.5Z" fill="#E52F24"></path></svg> 